<svg width="480" height="376" viewBox="0 0 480 376" fill="none" xmlns="http://www.w3.org/2000/svg">
<g clip-path="url(#clip0_3030_1247)">
<path d="M107.104 194.192C110.892 196.423 110.913 200.016 107.144 202.225L79.1584 218.704C75.3902 220.914 69.2594 220.935 65.4709 218.704L37.3017 202.225C33.5132 200.016 33.4928 196.402 37.2609 194.192L65.2469 177.713C69.015 175.483 75.1458 175.503 78.9343 177.713L107.104 194.192Z" fill="#60B2FE"/>
<path d="M381.438 220.068C381.438 220.436 381.406 220.793 381.385 221.161C381.364 221.476 381.353 221.78 381.322 222.095C381.29 222.368 381.259 222.641 381.217 222.914C381.175 223.219 381.133 223.534 381.07 223.838C381.017 224.111 380.965 224.384 380.902 224.657C380.839 224.962 380.765 225.256 380.681 225.56C380.608 225.833 380.524 226.106 380.44 226.379C380.345 226.673 380.251 226.978 380.146 227.272C380.051 227.534 379.947 227.807 379.842 228.07C379.715 228.385 379.589 228.7 379.442 229.004C379.327 229.267 379.201 229.529 379.075 229.792C378.928 230.107 378.76 230.411 378.592 230.716C378.455 230.968 378.319 231.22 378.172 231.472C377.962 231.84 377.731 232.207 377.489 232.564C377.342 232.785 377.206 233.005 377.059 233.226C376.786 233.625 376.492 234.024 376.187 234.423C376.04 234.612 375.914 234.801 375.767 234.99C375.694 235.074 375.631 235.158 375.557 235.242C375.232 235.641 374.896 236.029 374.549 236.428C374.455 236.533 374.36 236.649 374.255 236.754C373.846 237.205 373.415 237.657 372.964 238.098C372.88 238.182 372.796 238.255 372.712 238.339C372.365 238.675 372.008 239.001 371.651 239.326C371.357 239.589 371.063 239.851 370.759 240.103C370.475 240.345 370.191 240.576 369.908 240.818C369.593 241.07 369.267 241.322 368.942 241.574C368.637 241.805 368.333 242.036 368.018 242.267C367.671 242.519 367.325 242.76 366.968 243.002C366.642 243.222 366.317 243.453 365.981 243.674C365.613 243.915 365.235 244.146 364.857 244.388C364.385 244.682 363.912 244.976 363.419 245.27C362.495 245.805 361.539 246.32 360.573 246.813C360.29 246.96 360.006 247.097 359.722 247.233C358.966 247.601 358.2 247.968 357.423 248.315C357.16 248.43 356.908 248.556 356.635 248.672C355.627 249.113 354.598 249.533 353.548 249.932C353.359 250.005 353.17 250.068 352.992 250.131C352.11 250.457 351.207 250.772 350.304 251.077C349.925 251.203 349.558 251.318 349.18 251.444C348.686 251.602 348.182 251.749 347.678 251.906C347.248 252.032 346.817 252.158 346.387 252.274C345.872 252.41 345.368 252.547 344.854 252.683C344.423 252.799 343.982 252.904 343.552 253.009C343.027 253.135 342.502 253.25 341.977 253.376C341.535 253.471 341.105 253.576 340.664 253.66C340.128 253.775 339.582 253.88 339.047 253.975C338.627 254.059 338.217 254.132 337.797 254.206C336.642 254.416 335.466 254.605 334.29 254.762C334.122 254.783 333.954 254.804 333.786 254.825C332.768 254.962 331.739 255.088 330.709 255.193C330.31 255.235 329.922 255.277 329.523 255.308C328.861 255.371 328.2 255.424 327.528 255.476C327.108 255.508 326.688 255.539 326.268 255.56C325.575 255.602 324.882 255.634 324.189 255.665C323.8 255.686 323.401 255.707 323.013 255.718C322.414 255.739 321.805 255.749 321.206 255.749C320.786 255.76 320.356 255.77 319.936 255.77C319.295 255.77 318.644 255.76 318.004 255.749C317.626 255.739 317.237 255.739 316.859 255.728C316.271 255.718 315.683 255.686 315.095 255.655C314.675 255.634 314.266 255.623 313.846 255.602C313.216 255.571 312.586 255.518 311.956 255.476C311.588 255.445 311.21 255.434 310.842 255.403C310.086 255.34 309.341 255.266 308.595 255.182C308.354 255.161 308.102 255.14 307.86 255.109C306.873 254.993 305.886 254.878 304.899 254.731C304.752 254.71 304.616 254.689 304.469 254.668C303.608 254.542 302.757 254.405 301.907 254.258C301.56 254.195 301.203 254.122 300.857 254.059C300.216 253.943 299.575 253.828 298.945 253.691C298.609 253.618 298.284 253.544 297.948 253.471C297.255 253.324 296.551 253.166 295.869 252.998C295.48 252.904 295.102 252.809 294.724 252.715C294.094 252.557 293.464 252.389 292.845 252.221C292.488 252.127 292.141 252.022 291.784 251.917C290.797 251.633 289.82 251.329 288.854 251.003C288.686 250.951 288.508 250.898 288.34 250.835C287.227 250.457 286.135 250.058 285.064 249.638C284.623 249.47 284.192 249.291 283.762 249.113C283.415 248.976 283.069 248.829 282.733 248.682C282.25 248.472 281.767 248.252 281.294 248.042C280.979 247.895 280.664 247.758 280.359 247.611C279.834 247.359 279.32 247.107 278.816 246.845C278.564 246.719 278.301 246.593 278.06 246.467C277.304 246.068 276.558 245.658 275.823 245.238C268.956 241.269 264.021 236.607 261.017 231.64C258.686 227.776 257.521 223.733 257.531 219.69L256.901 244.829C256.88 254.069 262.971 263.331 275.183 270.376C275.918 270.797 276.663 271.206 277.419 271.605C277.671 271.731 277.923 271.857 278.175 271.983C278.69 272.246 279.204 272.498 279.719 272.75C280.023 272.897 280.349 273.033 280.653 273.18C281.136 273.401 281.609 273.621 282.092 273.821C282.428 273.968 282.775 274.104 283.121 274.251C283.447 274.388 283.772 274.524 284.108 274.661C284.213 274.703 284.318 274.734 284.423 274.776C285.505 275.196 286.586 275.595 287.699 275.973C287.867 276.036 288.046 276.078 288.214 276.141C289.18 276.456 290.156 276.761 291.144 277.055C291.312 277.107 291.469 277.16 291.637 277.202C291.826 277.254 292.015 277.296 292.204 277.349C292.823 277.517 293.454 277.685 294.084 277.842C294.462 277.937 294.85 278.042 295.228 278.136C295.921 278.304 296.614 278.451 297.307 278.609C297.57 278.661 297.822 278.735 298.095 278.787C298.168 278.798 298.242 278.808 298.305 278.829C298.945 278.955 299.586 279.081 300.226 279.197C300.573 279.26 300.919 279.333 301.266 279.386C302.116 279.533 302.988 279.669 303.849 279.796C303.986 279.817 304.112 279.838 304.248 279.859C304.259 279.859 304.259 279.859 304.269 279.859C305.256 279.995 306.243 280.121 307.23 280.237C307.472 280.268 307.724 280.279 307.965 280.31C308.711 280.384 309.456 280.468 310.212 280.531C310.233 280.531 310.254 280.531 310.275 280.541C310.622 280.573 310.979 280.583 311.336 280.615C311.966 280.657 312.596 280.709 313.226 280.741C313.646 280.762 314.056 280.772 314.476 280.793C315.064 280.814 315.652 280.846 316.24 280.867C316.292 280.867 316.334 280.867 316.387 280.877C316.723 280.888 317.059 280.877 317.384 280.888C318.025 280.898 318.676 280.909 319.316 280.909C319.736 280.909 320.167 280.898 320.587 280.888C321.185 280.877 321.794 280.867 322.393 280.856C322.509 280.856 322.614 280.856 322.729 280.846C323.013 280.835 323.286 280.814 323.569 280.804C324.262 280.772 324.955 280.741 325.648 280.699C326.068 280.678 326.488 280.646 326.908 280.615C327.57 280.562 328.242 280.51 328.903 280.447C329.134 280.426 329.365 280.415 329.607 280.384C329.764 280.363 329.932 280.342 330.09 280.331C331.119 280.226 332.148 280.1 333.177 279.963C333.345 279.942 333.513 279.921 333.681 279.9C334.857 279.732 336.023 279.543 337.178 279.344C337.283 279.323 337.398 279.312 337.503 279.292C337.808 279.239 338.112 279.165 338.427 279.113C338.973 279.008 339.509 278.903 340.044 278.798C340.485 278.703 340.916 278.609 341.357 278.514C341.882 278.399 342.407 278.273 342.932 278.147C343.373 278.042 343.804 277.926 344.234 277.821C344.749 277.685 345.263 277.548 345.778 277.412C346.208 277.296 346.639 277.17 347.059 277.044C347.563 276.897 348.067 276.74 348.571 276.582C348.791 276.509 349.012 276.456 349.232 276.383C349.39 276.33 349.537 276.267 349.694 276.225C350.597 275.921 351.501 275.616 352.383 275.28C352.572 275.207 352.761 275.144 352.939 275.081C353.989 274.682 355.018 274.262 356.026 273.821C356.289 273.705 356.551 273.59 356.814 273.464C357.591 273.117 358.357 272.76 359.113 272.382C359.397 272.246 359.68 272.109 359.953 271.962C360.919 271.469 361.875 270.954 362.799 270.419C363.051 270.272 363.303 270.125 363.555 269.967C363.786 269.831 364.007 269.683 364.238 269.536C364.616 269.295 364.994 269.064 365.361 268.822C365.697 268.602 366.023 268.381 366.348 268.15C366.705 267.909 367.052 267.657 367.398 267.415C367.713 267.184 368.018 266.953 368.322 266.722C368.648 266.47 368.973 266.218 369.288 265.966C369.582 265.735 369.866 265.494 370.139 265.252C370.444 264.99 370.738 264.738 371.032 264.475C371.147 264.37 371.284 264.265 371.399 264.15C371.641 263.929 371.861 263.709 372.092 263.488C372.176 263.404 372.26 263.331 372.344 263.247C372.796 262.806 373.226 262.354 373.636 261.903C373.73 261.798 373.825 261.693 373.919 261.588C377.93 257.091 380.807 251.367 380.807 245.238L381.438 220.068Z" fill="#3072BE"/>
<path d="M363.146 194.521C387.423 208.539 387.549 231.262 363.429 245.27C339.32 259.278 300.09 259.278 275.813 245.27C251.546 231.262 251.42 208.539 275.529 194.521C299.649 180.503 338.879 180.503 363.146 194.521Z" fill="#E9F4FB"/>
<path d="M381.438 187.517C381.438 187.885 381.406 188.242 381.385 188.609C381.364 188.924 381.353 189.229 381.322 189.544C381.29 189.817 381.259 190.09 381.217 190.363C381.175 190.667 381.133 190.982 381.07 191.287C381.017 191.56 380.965 191.833 380.902 192.106C380.839 192.41 380.765 192.704 380.681 193.009C380.608 193.282 380.524 193.555 380.44 193.828C380.345 194.122 380.251 194.427 380.146 194.721C380.051 194.983 379.947 195.256 379.842 195.519C379.715 195.834 379.589 196.149 379.442 196.453C379.327 196.716 379.201 196.978 379.075 197.241C378.928 197.556 378.76 197.86 378.592 198.165C378.455 198.417 378.319 198.669 378.172 198.921C377.962 199.288 377.731 199.656 377.489 200.013C377.342 200.233 377.206 200.454 377.059 200.674C376.786 201.073 376.492 201.472 376.187 201.871C376.04 202.06 375.914 202.249 375.767 202.438C375.694 202.522 375.631 202.606 375.557 202.69C375.232 203.089 374.896 203.478 374.549 203.877C374.455 203.982 374.36 204.097 374.255 204.202C373.846 204.654 373.415 205.106 372.964 205.547C372.88 205.631 372.796 205.704 372.712 205.788C372.365 206.124 372.008 206.45 371.651 206.775C371.357 207.038 371.063 207.3 370.759 207.552C370.475 207.794 370.191 208.025 369.908 208.266C369.593 208.518 369.267 208.77 368.942 209.022C368.637 209.253 368.333 209.484 368.018 209.715C367.671 209.967 367.325 210.209 366.968 210.45C366.642 210.671 366.317 210.902 365.981 211.122C365.613 211.364 365.235 211.595 364.857 211.836C364.385 212.13 363.912 212.424 363.419 212.718C362.495 213.254 361.539 213.769 360.573 214.262C360.29 214.409 360.006 214.546 359.722 214.682C358.966 215.05 358.2 215.417 357.423 215.764C357.16 215.879 356.908 216.005 356.635 216.121C355.627 216.562 354.598 216.982 353.548 217.381C353.359 217.454 353.17 217.517 352.992 217.58C352.11 217.906 351.207 218.221 350.304 218.525C349.925 218.651 349.558 218.767 349.18 218.893C348.686 219.05 348.182 219.197 347.678 219.355C347.248 219.481 346.817 219.607 346.387 219.722C345.872 219.859 345.368 219.995 344.854 220.132C344.423 220.247 343.982 220.352 343.552 220.457C343.027 220.583 342.502 220.699 341.977 220.825C341.535 220.919 341.105 221.024 340.664 221.108C340.128 221.224 339.582 221.329 339.047 221.423C338.627 221.507 338.217 221.581 337.797 221.654C336.642 221.864 335.466 222.053 334.29 222.211C334.122 222.232 333.954 222.253 333.786 222.274C332.768 222.41 331.739 222.536 330.709 222.641C330.31 222.683 329.922 222.725 329.523 222.757C328.861 222.82 328.2 222.872 327.528 222.925C327.108 222.956 326.688 222.988 326.268 223.009C325.575 223.051 324.882 223.082 324.189 223.114C323.8 223.135 323.401 223.156 323.013 223.166C322.414 223.187 321.805 223.198 321.206 223.198C320.786 223.208 320.356 223.219 319.936 223.219C319.295 223.219 318.644 223.208 318.004 223.198C317.626 223.187 317.237 223.187 316.859 223.177C316.271 223.166 315.683 223.135 315.095 223.103C314.675 223.082 314.266 223.072 313.846 223.051C313.216 223.019 312.586 222.967 311.956 222.925C311.588 222.893 311.21 222.883 310.842 222.851C310.086 222.788 309.341 222.715 308.595 222.631C308.354 222.61 308.102 222.589 307.86 222.557C306.873 222.442 305.886 222.326 304.899 222.179C304.752 222.158 304.616 222.137 304.469 222.116C303.608 221.99 302.757 221.854 301.907 221.707C301.56 221.644 301.203 221.57 300.857 221.507C300.216 221.392 299.575 221.276 298.945 221.14C298.609 221.066 298.284 220.993 297.948 220.919C297.255 220.772 296.551 220.615 295.869 220.447C295.48 220.352 295.102 220.258 294.724 220.163C294.094 220.006 293.464 219.838 292.845 219.67C292.488 219.575 292.141 219.47 291.784 219.365C290.797 219.082 289.82 218.777 288.854 218.452C288.686 218.399 288.508 218.347 288.34 218.284C287.227 217.906 286.135 217.507 285.064 217.087C284.623 216.919 284.192 216.74 283.762 216.562C283.415 216.425 283.069 216.278 282.733 216.131C282.25 215.921 281.767 215.701 281.294 215.491C280.979 215.344 280.664 215.207 280.359 215.06C279.834 214.808 279.32 214.556 278.816 214.294C278.564 214.168 278.301 214.041 278.06 213.915C277.304 213.516 276.558 213.107 275.823 212.687C268.956 208.718 264.021 204.055 261.017 199.089C258.686 195.225 257.521 191.182 257.531 187.139L256.901 212.277C256.88 221.518 262.971 230.779 275.183 237.825C275.918 238.245 276.663 238.655 277.419 239.054C277.671 239.18 277.923 239.306 278.175 239.432C278.69 239.694 279.204 239.946 279.719 240.198C280.023 240.345 280.349 240.482 280.653 240.629C281.136 240.849 281.609 241.07 282.092 241.269C282.428 241.416 282.775 241.553 283.121 241.7C283.447 241.836 283.772 241.973 284.108 242.109C284.213 242.151 284.318 242.183 284.423 242.225C285.505 242.645 286.586 243.044 287.699 243.422C287.867 243.485 288.046 243.527 288.214 243.59C289.18 243.905 290.156 244.21 291.144 244.504C291.312 244.556 291.469 244.609 291.637 244.651C291.826 244.703 292.015 244.745 292.204 244.798C292.823 244.966 293.454 245.134 294.084 245.291C294.462 245.386 294.85 245.491 295.228 245.585C295.921 245.753 296.614 245.9 297.307 246.058C297.57 246.11 297.822 246.184 298.095 246.236C298.168 246.247 298.242 246.257 298.305 246.278C298.945 246.404 299.586 246.53 300.226 246.646C300.573 246.709 300.919 246.782 301.266 246.835C302.116 246.982 302.988 247.118 303.849 247.244C303.986 247.265 304.112 247.286 304.248 247.307C304.259 247.307 304.259 247.307 304.269 247.307C305.256 247.444 306.243 247.57 307.23 247.685C307.472 247.717 307.724 247.727 307.965 247.759C308.711 247.832 309.456 247.916 310.212 247.979C310.233 247.979 310.254 247.979 310.275 247.99C310.622 248.021 310.979 248.032 311.336 248.063C311.966 248.105 312.596 248.158 313.226 248.189C313.646 248.21 314.056 248.221 314.476 248.242C315.064 248.263 315.652 248.294 316.24 248.315C316.292 248.315 316.334 248.315 316.387 248.326C316.723 248.336 317.059 248.326 317.384 248.336C318.025 248.347 318.676 248.357 319.316 248.357C319.736 248.357 320.167 248.347 320.587 248.336C321.185 248.326 321.794 248.315 322.393 248.305C322.509 248.305 322.614 248.305 322.729 248.294C323.013 248.284 323.286 248.263 323.569 248.252C324.262 248.221 324.955 248.189 325.648 248.147C326.068 248.126 326.488 248.095 326.908 248.063C327.57 248.011 328.242 247.958 328.903 247.895C329.134 247.874 329.365 247.864 329.607 247.832C329.764 247.811 329.932 247.79 330.09 247.78C331.119 247.675 332.148 247.549 333.177 247.412C333.345 247.391 333.513 247.37 333.681 247.349C334.857 247.181 336.023 246.992 337.178 246.793C337.283 246.772 337.398 246.761 337.503 246.74C337.808 246.688 338.112 246.614 338.427 246.562C338.973 246.457 339.509 246.352 340.044 246.247C340.485 246.152 340.916 246.058 341.357 245.963C341.882 245.848 342.407 245.722 342.932 245.596C343.373 245.491 343.804 245.375 344.234 245.27C344.749 245.134 345.263 244.997 345.778 244.861C346.208 244.745 346.639 244.619 347.059 244.493C347.563 244.346 348.067 244.189 348.571 244.031C348.791 243.958 349.012 243.905 349.232 243.832C349.39 243.779 349.537 243.716 349.694 243.674C350.597 243.369 351.501 243.065 352.383 242.729C352.572 242.655 352.761 242.592 352.939 242.529C353.989 242.13 355.018 241.71 356.026 241.269C356.289 241.154 356.551 241.038 356.814 240.912C357.591 240.566 358.357 240.209 359.113 239.831C359.397 239.694 359.68 239.558 359.953 239.411C360.919 238.917 361.875 238.403 362.799 237.867C363.051 237.72 363.303 237.573 363.555 237.416C363.786 237.279 364.007 237.132 364.238 236.985C364.616 236.744 364.994 236.513 365.361 236.271C365.697 236.051 366.023 235.83 366.348 235.599C366.705 235.358 367.052 235.106 367.398 234.864C367.713 234.633 368.018 234.402 368.322 234.171C368.648 233.919 368.973 233.667 369.288 233.415C369.582 233.184 369.866 232.942 370.139 232.701C370.444 232.438 370.738 232.186 371.032 231.924C371.147 231.819 371.284 231.714 371.399 231.598C371.641 231.378 371.861 231.157 372.092 230.937C372.176 230.853 372.26 230.779 372.344 230.695C372.796 230.254 373.226 229.803 373.636 229.351C373.73 229.246 373.825 229.141 373.919 229.036C377.93 224.54 380.807 218.816 380.807 212.687L381.438 187.517Z" fill="#3072BE"/>
<path d="M363.146 161.97C387.423 175.988 387.549 198.711 363.429 212.719C339.32 226.726 300.09 226.726 275.813 212.719C251.546 198.711 251.42 175.988 275.529 161.97C299.649 147.951 338.879 147.951 363.146 161.97Z" fill="#E9F4FB"/>
<path d="M381.438 154.966C381.438 155.333 381.406 155.69 381.385 156.058C381.364 156.373 381.353 156.677 381.322 156.992C381.29 157.265 381.259 157.538 381.217 157.811C381.175 158.116 381.133 158.431 381.07 158.736C381.017 159.009 380.965 159.282 380.902 159.555C380.839 159.859 380.765 160.153 380.681 160.458C380.608 160.731 380.524 161.004 380.44 161.277C380.345 161.571 380.251 161.875 380.146 162.169C380.051 162.432 379.947 162.705 379.842 162.967C379.715 163.282 379.589 163.597 379.442 163.902C379.327 164.164 379.201 164.427 379.075 164.689C378.928 165.004 378.76 165.309 378.592 165.613C378.455 165.865 378.319 166.117 378.172 166.369C377.962 166.737 377.731 167.104 377.489 167.461C377.342 167.682 377.206 167.902 377.059 168.123C376.786 168.522 376.492 168.921 376.187 169.32C376.04 169.509 375.914 169.698 375.767 169.887C375.694 169.971 375.631 170.055 375.557 170.139C375.232 170.538 374.896 170.927 374.549 171.326C374.455 171.431 374.36 171.546 374.255 171.651C373.846 172.103 373.415 172.554 372.964 172.995C372.88 173.079 372.796 173.153 372.712 173.237C372.365 173.573 372.008 173.898 371.651 174.224C371.357 174.486 371.063 174.749 370.759 175.001C370.475 175.242 370.191 175.473 369.908 175.715C369.593 175.967 369.267 176.219 368.942 176.471C368.637 176.702 368.333 176.933 368.018 177.164C367.671 177.416 367.325 177.657 366.968 177.899C366.642 178.12 366.317 178.351 365.981 178.571C365.613 178.813 365.235 179.044 364.857 179.285C364.385 179.579 363.912 179.873 363.419 180.167C362.495 180.703 361.539 181.217 360.573 181.711C360.29 181.858 360.006 181.994 359.722 182.131C358.966 182.498 358.2 182.866 357.423 183.212C357.16 183.328 356.908 183.454 356.635 183.569C355.627 184.01 354.598 184.43 353.548 184.829C353.359 184.903 353.17 184.966 352.992 185.029C352.11 185.354 351.207 185.669 350.304 185.974C349.925 186.1 349.558 186.215 349.18 186.341C348.686 186.499 348.182 186.646 347.678 186.803C347.248 186.929 346.817 187.055 346.387 187.171C345.872 187.307 345.368 187.444 344.854 187.58C344.423 187.696 343.982 187.801 343.552 187.906C343.027 188.032 342.502 188.148 341.977 188.274C341.535 188.368 341.105 188.473 340.664 188.557C340.128 188.673 339.582 188.778 339.047 188.872C338.627 188.956 338.217 189.03 337.797 189.103C336.642 189.313 335.466 189.502 334.29 189.66C334.122 189.681 333.954 189.702 333.786 189.723C332.768 189.859 331.739 189.985 330.709 190.09C330.31 190.132 329.922 190.174 329.523 190.206C328.861 190.269 328.2 190.321 327.528 190.374C327.108 190.405 326.688 190.437 326.268 190.458C325.575 190.5 324.882 190.531 324.189 190.563C323.8 190.584 323.401 190.605 323.013 190.615C322.414 190.636 321.805 190.647 321.206 190.647C320.786 190.657 320.356 190.668 319.936 190.668C319.295 190.668 318.644 190.657 318.004 190.647C317.626 190.636 317.237 190.636 316.859 190.626C316.271 190.615 315.683 190.584 315.095 190.552C314.675 190.531 314.266 190.521 313.846 190.5C313.216 190.468 312.586 190.416 311.956 190.374C311.588 190.342 311.21 190.332 310.842 190.3C310.086 190.237 309.341 190.164 308.595 190.08C308.354 190.059 308.102 190.038 307.86 190.006C306.873 189.891 305.886 189.775 304.899 189.628C304.752 189.607 304.616 189.586 304.469 189.565C303.608 189.439 302.757 189.303 301.907 189.156C301.56 189.093 301.203 189.019 300.857 188.956C300.216 188.841 299.575 188.725 298.945 188.589C298.609 188.515 298.284 188.442 297.948 188.368C297.255 188.221 296.551 188.064 295.869 187.895C295.48 187.801 295.102 187.706 294.724 187.612C294.094 187.454 293.464 187.286 292.845 187.118C292.488 187.024 292.141 186.919 291.784 186.814C290.797 186.53 289.82 186.226 288.854 185.9C288.686 185.848 288.508 185.795 288.34 185.732C287.227 185.354 286.135 184.955 285.064 184.535C284.623 184.367 284.192 184.189 283.762 184.01C283.415 183.874 283.069 183.727 282.733 183.58C282.25 183.37 281.767 183.149 281.294 182.939C280.979 182.792 280.664 182.656 280.359 182.509C279.834 182.257 279.32 182.005 278.816 181.742C278.564 181.616 278.301 181.49 278.06 181.364C277.304 180.965 276.558 180.556 275.823 180.136C268.956 176.166 264.021 171.504 261.017 166.537C258.686 162.673 257.521 158.631 257.531 154.588L256.901 179.726C256.88 188.967 262.971 198.228 275.183 205.274C275.918 205.694 276.663 206.103 277.419 206.502C277.671 206.628 277.923 206.754 278.175 206.88C278.69 207.143 279.204 207.395 279.719 207.647C280.023 207.794 280.349 207.931 280.653 208.078C281.136 208.298 281.609 208.519 282.092 208.718C282.428 208.865 282.775 209.002 283.121 209.149C283.447 209.285 283.772 209.422 284.108 209.558C284.213 209.6 284.318 209.632 284.423 209.674C285.505 210.094 286.586 210.493 287.699 210.871C287.867 210.934 288.046 210.976 288.214 211.039C289.18 211.354 290.156 211.658 291.144 211.952C291.312 212.005 291.469 212.057 291.637 212.099C291.826 212.152 292.015 212.194 292.204 212.246C292.823 212.414 293.454 212.582 294.084 212.74C294.462 212.834 294.85 212.939 295.228 213.034C295.921 213.202 296.614 213.349 297.307 213.506C297.57 213.559 297.822 213.632 298.095 213.685C298.168 213.695 298.242 213.706 298.305 213.727C298.945 213.853 299.586 213.979 300.226 214.094C300.573 214.157 300.919 214.231 301.266 214.283C302.116 214.43 302.988 214.567 303.849 214.693C303.986 214.714 304.112 214.735 304.248 214.756C304.259 214.756 304.259 214.756 304.269 214.756C305.256 214.892 306.243 215.018 307.23 215.134C307.472 215.165 307.724 215.176 307.965 215.207C308.711 215.281 309.456 215.365 310.212 215.428C310.233 215.428 310.254 215.428 310.275 215.438C310.622 215.47 310.979 215.48 311.336 215.512C311.966 215.554 312.596 215.606 313.226 215.638C313.646 215.659 314.056 215.669 314.476 215.69C315.064 215.711 315.652 215.743 316.24 215.764C316.292 215.764 316.334 215.764 316.387 215.774C316.723 215.785 317.059 215.774 317.384 215.785C318.025 215.795 318.676 215.806 319.316 215.806C319.736 215.806 320.167 215.795 320.587 215.785C321.185 215.774 321.794 215.764 322.393 215.753C322.509 215.753 322.614 215.753 322.729 215.743C323.013 215.732 323.286 215.711 323.569 215.701C324.262 215.669 324.955 215.638 325.648 215.596C326.068 215.575 326.488 215.543 326.908 215.512C327.57 215.459 328.242 215.407 328.903 215.344C329.134 215.323 329.365 215.312 329.607 215.281C329.764 215.26 329.932 215.239 330.09 215.228C331.119 215.123 332.148 214.997 333.177 214.861C333.345 214.84 333.513 214.819 333.681 214.798C334.857 214.63 336.023 214.441 337.178 214.241C337.283 214.22 337.398 214.21 337.503 214.189C337.808 214.136 338.112 214.063 338.427 214.01C338.973 213.905 339.509 213.8 340.044 213.695C340.485 213.601 340.916 213.506 341.357 213.412C341.882 213.296 342.407 213.17 342.932 213.044C343.373 212.939 343.804 212.824 344.234 212.719C344.749 212.582 345.263 212.446 345.778 212.309C346.208 212.194 346.639 212.068 347.059 211.942C347.563 211.795 348.067 211.637 348.571 211.48C348.791 211.406 349.012 211.354 349.232 211.28C349.39 211.228 349.537 211.165 349.694 211.123C350.597 210.818 351.501 210.514 352.383 210.178C352.572 210.104 352.761 210.041 352.939 209.978C353.989 209.579 355.018 209.159 356.026 208.718C356.289 208.603 356.551 208.487 356.814 208.361C357.591 208.015 358.357 207.658 359.113 207.279C359.397 207.143 359.68 207.006 359.953 206.859C360.919 206.366 361.875 205.851 362.799 205.316C363.051 205.169 363.303 205.022 363.555 204.864C363.786 204.728 364.007 204.581 364.238 204.434C364.616 204.192 364.994 203.961 365.361 203.72C365.697 203.499 366.023 203.279 366.348 203.048C366.705 202.806 367.052 202.554 367.398 202.313C367.713 202.082 368.018 201.851 368.322 201.62C368.648 201.368 368.973 201.116 369.288 200.864C369.582 200.633 369.866 200.391 370.139 200.15C370.444 199.887 370.738 199.635 371.032 199.373C371.147 199.268 371.284 199.163 371.399 199.047C371.641 198.827 371.861 198.606 372.092 198.386C372.176 198.302 372.26 198.228 372.344 198.144C372.796 197.703 373.226 197.252 373.636 196.8C373.73 196.695 373.825 196.59 373.919 196.485C377.93 191.988 380.807 186.264 380.807 180.136L381.438 154.966Z" fill="#3072BE"/>
<path d="M363.146 129.418C387.423 143.436 387.549 166.159 363.429 180.167C339.32 194.175 300.09 194.175 275.813 180.167C251.546 166.159 251.42 143.436 275.529 129.418C299.649 115.4 338.879 115.4 363.146 129.418Z" fill="#E9F4FB"/>
<path d="M381.438 122.414C381.438 122.782 381.406 123.139 381.385 123.506C381.364 123.821 381.353 124.126 381.322 124.441C381.29 124.714 381.259 124.987 381.217 125.26C381.175 125.564 381.133 125.879 381.07 126.184C381.017 126.457 380.965 126.73 380.902 127.003C380.839 127.307 380.765 127.601 380.681 127.906C380.608 128.179 380.524 128.452 380.44 128.725C380.345 129.019 380.251 129.323 380.146 129.617C380.051 129.88 379.947 130.153 379.842 130.416C379.715 130.731 379.589 131.046 379.442 131.35C379.327 131.613 379.201 131.875 379.075 132.138C378.928 132.453 378.76 132.757 378.592 133.062C378.455 133.314 378.319 133.566 378.172 133.818C377.962 134.185 377.731 134.553 377.489 134.91C377.342 135.13 377.206 135.351 377.059 135.571C376.786 135.97 376.492 136.369 376.187 136.768C376.04 136.957 375.914 137.146 375.767 137.335C375.694 137.419 375.631 137.503 375.557 137.587C375.232 137.986 374.896 138.375 374.549 138.774C374.455 138.879 374.36 138.994 374.255 139.099C373.846 139.551 373.415 140.003 372.964 140.444C372.88 140.528 372.796 140.601 372.712 140.685C372.365 141.021 372.008 141.347 371.651 141.672C371.357 141.935 371.063 142.197 370.759 142.449C370.475 142.691 370.191 142.922 369.908 143.163C369.593 143.415 369.267 143.667 368.942 143.919C368.637 144.15 368.333 144.381 368.018 144.612C367.671 144.864 367.325 145.106 366.968 145.347C366.642 145.568 366.317 145.799 365.981 146.019C365.613 146.261 365.235 146.492 364.857 146.733C364.385 147.027 363.912 147.321 363.419 147.615C362.495 148.151 361.539 148.665 360.573 149.159C360.29 149.306 360.006 149.443 359.722 149.579C358.966 149.947 358.2 150.314 357.423 150.661C357.16 150.776 356.908 150.902 356.635 151.018C355.627 151.459 354.598 151.879 353.548 152.278C353.359 152.351 353.17 152.414 352.992 152.477C352.11 152.803 351.207 153.118 350.304 153.422C349.925 153.548 349.558 153.664 349.18 153.79C348.686 153.947 348.182 154.094 347.678 154.252C347.248 154.378 346.817 154.504 346.387 154.619C345.872 154.756 345.368 154.892 344.854 155.029C344.423 155.144 343.982 155.249 343.552 155.354C343.027 155.48 342.502 155.596 341.977 155.722C341.535 155.816 341.105 155.921 340.664 156.005C340.128 156.121 339.582 156.226 339.047 156.32C338.627 156.404 338.217 156.478 337.797 156.551C336.642 156.761 335.466 156.95 334.29 157.108C334.122 157.129 333.954 157.15 333.786 157.171C332.768 157.307 331.739 157.433 330.709 157.538C330.31 157.58 329.922 157.622 329.523 157.654C328.861 157.717 328.2 157.769 327.528 157.822C327.108 157.853 326.688 157.885 326.268 157.906C325.575 157.948 324.882 157.979 324.189 158.011C323.8 158.032 323.401 158.053 323.013 158.063C322.414 158.084 321.805 158.095 321.206 158.095C320.786 158.105 320.356 158.116 319.936 158.116C319.295 158.116 318.644 158.105 318.004 158.095C317.626 158.084 317.237 158.084 316.859 158.074C316.271 158.063 315.683 158.032 315.095 158C314.675 157.979 314.266 157.969 313.846 157.948C313.216 157.916 312.586 157.864 311.956 157.822C311.588 157.79 311.21 157.78 310.842 157.748C310.086 157.685 309.341 157.612 308.595 157.528C308.354 157.507 308.102 157.486 307.86 157.454C306.873 157.339 305.886 157.223 304.899 157.076C304.752 157.055 304.616 157.034 304.469 157.013C303.608 156.887 302.757 156.751 301.907 156.604C301.56 156.541 301.203 156.467 300.857 156.404C300.216 156.289 299.575 156.173 298.945 156.037C298.609 155.963 298.284 155.89 297.948 155.816C297.255 155.669 296.551 155.512 295.869 155.344C295.48 155.249 295.102 155.155 294.724 155.06C294.094 154.903 293.464 154.735 292.845 154.567C292.488 154.472 292.141 154.367 291.784 154.262C290.797 153.979 289.82 153.674 288.854 153.349C288.686 153.296 288.508 153.244 288.34 153.181C287.227 152.803 286.135 152.404 285.064 151.984C284.623 151.816 284.192 151.637 283.762 151.459C283.415 151.322 283.069 151.175 282.733 151.028C282.25 150.818 281.767 150.598 281.294 150.388C280.979 150.241 280.664 150.104 280.359 149.957C279.834 149.705 279.32 149.453 278.816 149.19C278.564 149.064 278.301 148.938 278.06 148.812C277.304 148.413 276.558 148.004 275.823 147.584C268.956 143.615 264.021 138.952 261.017 133.986C258.686 130.122 257.521 126.079 257.531 122.036L256.901 147.174C256.88 156.415 262.971 165.676 275.183 172.722C275.918 173.142 276.663 173.552 277.419 173.951C277.671 174.077 277.923 174.203 278.175 174.329C278.69 174.591 279.204 174.843 279.719 175.095C280.023 175.242 280.349 175.379 280.653 175.526C281.136 175.746 281.609 175.967 282.092 176.166C282.428 176.313 282.775 176.45 283.121 176.597C283.447 176.733 283.772 176.87 284.108 177.006C284.213 177.048 284.318 177.08 284.423 177.122C285.505 177.542 286.586 177.941 287.699 178.319C287.867 178.382 288.046 178.424 288.214 178.487C289.18 178.802 290.156 179.107 291.144 179.401C291.312 179.453 291.469 179.506 291.637 179.548C291.826 179.6 292.015 179.642 292.204 179.695C292.823 179.863 293.454 180.031 294.084 180.188C294.462 180.283 294.85 180.388 295.228 180.482C295.921 180.65 296.614 180.797 297.307 180.955C297.57 181.007 297.822 181.081 298.095 181.133C298.168 181.144 298.242 181.154 298.305 181.175C298.945 181.301 299.586 181.427 300.226 181.543C300.573 181.606 300.919 181.679 301.266 181.732C302.116 181.879 302.988 182.015 303.849 182.141C303.986 182.162 304.112 182.183 304.248 182.204C304.259 182.204 304.259 182.204 304.269 182.204C305.256 182.341 306.243 182.467 307.23 182.582C307.472 182.614 307.724 182.624 307.965 182.656C308.711 182.729 309.456 182.813 310.212 182.876C310.233 182.876 310.254 182.876 310.275 182.887C310.622 182.918 310.979 182.929 311.336 182.96C311.966 183.002 312.596 183.055 313.226 183.086C313.646 183.107 314.056 183.118 314.476 183.139C315.064 183.16 315.652 183.191 316.24 183.212C316.292 183.212 316.334 183.212 316.387 183.223C316.723 183.233 317.059 183.223 317.384 183.233C318.025 183.244 318.676 183.254 319.316 183.254C319.736 183.254 320.167 183.244 320.587 183.233C321.185 183.223 321.794 183.212 322.393 183.202C322.509 183.202 322.614 183.202 322.729 183.191C323.013 183.181 323.286 183.16 323.569 183.149C324.262 183.118 324.955 183.086 325.648 183.044C326.068 183.023 326.488 182.992 326.908 182.96C327.57 182.908 328.242 182.855 328.903 182.792C329.134 182.771 329.365 182.761 329.607 182.729C329.764 182.708 329.932 182.687 330.09 182.677C331.119 182.572 332.148 182.446 333.177 182.309C333.345 182.288 333.513 182.267 333.681 182.246C334.857 182.078 336.023 181.889 337.178 181.69C337.283 181.669 337.398 181.658 337.503 181.637C337.808 181.585 338.112 181.511 338.427 181.459C338.973 181.354 339.509 181.249 340.044 181.144C340.485 181.049 340.916 180.955 341.357 180.86C341.882 180.745 342.407 180.619 342.932 180.493C343.373 180.388 343.804 180.272 344.234 180.167C344.749 180.031 345.263 179.894 345.778 179.758C346.208 179.642 346.639 179.516 347.059 179.39C347.563 179.243 348.067 179.086 348.571 178.928C348.791 178.855 349.012 178.802 349.232 178.729C349.39 178.676 349.537 178.613 349.694 178.571C350.597 178.266 351.501 177.962 352.383 177.626C352.572 177.552 352.761 177.489 352.939 177.426C353.989 177.027 355.018 176.607 356.026 176.166C356.289 176.051 356.551 175.935 356.814 175.809C357.591 175.463 358.357 175.106 359.113 174.728C359.397 174.591 359.68 174.455 359.953 174.308C360.919 173.814 361.875 173.3 362.799 172.764C363.051 172.617 363.303 172.47 363.555 172.313C363.786 172.176 364.007 172.029 364.238 171.882C364.616 171.641 364.994 171.41 365.361 171.168C365.697 170.948 366.023 170.727 366.348 170.496C366.705 170.255 367.052 170.003 367.398 169.761C367.713 169.53 368.018 169.299 368.322 169.068C368.648 168.816 368.973 168.564 369.288 168.312C369.582 168.081 369.866 167.839 370.139 167.598C370.444 167.335 370.738 167.083 371.032 166.821C371.147 166.716 371.284 166.611 371.399 166.495C371.641 166.275 371.861 166.054 372.092 165.834C372.176 165.75 372.26 165.676 372.344 165.592C372.796 165.151 373.226 164.7 373.636 164.248C373.73 164.143 373.825 164.038 373.919 163.933C377.93 159.437 380.807 153.713 380.807 147.584L381.438 122.414Z" fill="#3072BE"/>
<path d="M363.146 96.8661C387.423 110.884 387.549 133.607 363.429 147.615C339.32 161.623 300.09 161.623 275.813 147.615C251.546 133.607 251.42 110.884 275.529 96.8661C299.649 82.8479 338.879 82.8479 363.146 96.8661Z" fill="#E9F4FB"/>
<path d="M381.438 89.8622C381.438 90.2297 381.406 90.5868 381.385 90.9543C381.364 91.2693 381.353 91.5738 381.322 91.8888C381.29 92.1618 381.259 92.4348 381.217 92.7078C381.175 93.0124 381.133 93.3274 381.07 93.6319C381.017 93.9049 380.965 94.1779 380.902 94.4509C380.839 94.7555 380.765 95.0495 380.681 95.354C380.608 95.627 380.524 95.9 380.44 96.173C380.345 96.4671 380.251 96.7715 380.146 97.0656C380.051 97.3281 379.947 97.6011 379.842 97.8636C379.715 98.1786 379.589 98.4937 379.442 98.7982C379.327 99.0607 379.201 99.3232 379.075 99.5857C378.928 99.9007 378.76 100.205 378.592 100.51C378.455 100.762 378.319 101.014 378.172 101.266C377.962 101.633 377.731 102.001 377.489 102.358C377.342 102.578 377.206 102.799 377.059 103.019C376.786 103.418 376.492 103.817 376.187 104.216C376.04 104.405 375.914 104.594 375.767 104.783C375.694 104.867 375.631 104.951 375.557 105.035C375.232 105.435 374.896 105.823 374.549 106.222C374.455 106.327 374.36 106.443 374.255 106.548C373.846 106.999 373.415 107.451 372.964 107.892C372.88 107.976 372.796 108.049 372.712 108.133C372.365 108.469 372.008 108.795 371.651 109.12C371.357 109.383 371.063 109.645 370.759 109.897C370.475 110.139 370.191 110.37 369.908 110.611C369.593 110.863 369.267 111.115 368.942 111.367C368.637 111.598 368.333 111.829 368.018 112.06C367.671 112.312 367.325 112.554 366.968 112.795C366.642 113.016 366.317 113.247 365.981 113.467C365.613 113.709 365.235 113.94 364.857 114.181C364.385 114.475 363.912 114.769 363.419 115.063C362.495 115.599 361.539 116.114 360.573 116.607C360.29 116.754 360.006 116.891 359.722 117.027C358.966 117.395 358.2 117.762 357.423 118.109C357.16 118.224 356.908 118.35 356.635 118.466C355.627 118.907 354.598 119.327 353.548 119.726C353.359 119.799 353.17 119.862 352.992 119.925C352.11 120.251 351.207 120.566 350.304 120.87C349.925 120.996 349.558 121.112 349.18 121.238C348.686 121.395 348.182 121.542 347.678 121.7C347.248 121.826 346.817 121.952 346.387 122.067C345.872 122.204 345.368 122.34 344.854 122.477C344.423 122.592 343.982 122.697 343.552 122.802C343.027 122.928 342.502 123.044 341.977 123.17C341.535 123.264 341.105 123.369 340.664 123.453C340.128 123.569 339.582 123.674 339.047 123.768C338.627 123.852 338.217 123.926 337.797 123.999C336.642 124.209 335.466 124.398 334.29 124.556C334.122 124.577 333.954 124.598 333.786 124.619C332.768 124.755 331.739 124.882 330.709 124.987C330.31 125.029 329.922 125.07 329.523 125.102C328.861 125.165 328.2 125.218 327.528 125.27C327.108 125.302 326.688 125.333 326.268 125.354C325.575 125.396 324.882 125.428 324.189 125.459C323.8 125.48 323.401 125.501 323.013 125.512C322.414 125.533 321.805 125.543 321.206 125.543C320.786 125.554 320.356 125.564 319.936 125.564C319.295 125.564 318.644 125.554 318.004 125.543C317.626 125.533 317.237 125.533 316.859 125.522C316.271 125.512 315.683 125.48 315.095 125.449C314.675 125.428 314.266 125.417 313.846 125.396C313.216 125.365 312.586 125.312 311.956 125.27C311.588 125.239 311.21 125.228 310.842 125.197C310.086 125.133 309.341 125.06 308.595 124.976C308.354 124.955 308.102 124.934 307.86 124.902C306.873 124.787 305.886 124.671 304.899 124.524C304.752 124.503 304.616 124.482 304.469 124.461C303.608 124.335 302.757 124.199 301.907 124.052C301.56 123.989 301.203 123.915 300.857 123.852C300.216 123.737 299.575 123.621 298.945 123.485C298.609 123.411 298.284 123.338 297.948 123.264C297.255 123.117 296.551 122.96 295.869 122.792C295.48 122.697 295.102 122.603 294.724 122.508C294.094 122.351 293.464 122.183 292.845 122.015C292.488 121.92 292.141 121.815 291.784 121.71C290.797 121.427 289.82 121.122 288.854 120.797C288.686 120.744 288.508 120.692 288.34 120.629C287.227 120.251 286.135 119.852 285.064 119.432C284.623 119.264 284.192 119.085 283.762 118.907C283.415 118.77 283.069 118.623 282.733 118.476C282.25 118.266 281.767 118.046 281.294 117.836C280.979 117.689 280.664 117.552 280.359 117.405C279.834 117.153 279.32 116.901 278.816 116.639C278.564 116.513 278.301 116.387 278.06 116.261C277.304 115.862 276.558 115.452 275.823 115.032C268.956 111.063 264.021 106.401 261.017 101.434C258.686 97.5696 257.521 93.5269 257.531 89.4842L256.901 114.622C256.88 123.863 262.971 133.124 275.183 140.17C275.918 140.59 276.663 141 277.419 141.399C277.671 141.525 277.923 141.651 278.175 141.777C278.69 142.039 279.204 142.291 279.719 142.543C280.023 142.69 280.349 142.827 280.653 142.974C281.136 143.194 281.609 143.415 282.092 143.614C282.428 143.761 282.775 143.898 283.121 144.045C283.447 144.181 283.772 144.318 284.108 144.454C284.213 144.496 284.318 144.528 284.423 144.57C285.505 144.99 286.586 145.389 287.699 145.767C287.867 145.83 288.046 145.872 288.214 145.935C289.18 146.25 290.156 146.555 291.144 146.849C291.312 146.901 291.469 146.954 291.637 146.996C291.826 147.048 292.015 147.09 292.204 147.143C292.823 147.311 293.454 147.479 294.084 147.636C294.462 147.731 294.85 147.836 295.228 147.93C295.921 148.098 296.614 148.245 297.307 148.403C297.57 148.455 297.822 148.529 298.095 148.581C298.168 148.592 298.242 148.602 298.305 148.623C298.945 148.749 299.586 148.875 300.226 148.991C300.573 149.054 300.919 149.127 301.266 149.18C302.116 149.327 302.988 149.463 303.849 149.589C303.986 149.61 304.112 149.631 304.248 149.652C304.259 149.652 304.259 149.652 304.269 149.652C305.256 149.789 306.243 149.915 307.23 150.03C307.472 150.062 307.724 150.072 307.965 150.104C308.711 150.177 309.456 150.261 310.212 150.324C310.233 150.324 310.254 150.324 310.275 150.335C310.622 150.366 310.979 150.377 311.336 150.408C311.966 150.45 312.596 150.503 313.226 150.534C313.646 150.555 314.056 150.566 314.476 150.587C315.064 150.608 315.652 150.639 316.24 150.66C316.292 150.66 316.334 150.66 316.387 150.671C316.723 150.681 317.059 150.671 317.384 150.681C318.025 150.692 318.676 150.702 319.316 150.702C319.736 150.702 320.167 150.692 320.587 150.681C321.185 150.671 321.794 150.66 322.393 150.65C322.509 150.65 322.614 150.65 322.729 150.639C323.013 150.629 323.286 150.608 323.569 150.597C324.262 150.566 324.955 150.534 325.648 150.492C326.068 150.471 326.488 150.44 326.908 150.408C327.57 150.356 328.242 150.303 328.903 150.24C329.134 150.219 329.365 150.209 329.607 150.177C329.764 150.156 329.932 150.135 330.09 150.125C331.119 150.02 332.148 149.894 333.177 149.757C333.345 149.736 333.513 149.715 333.681 149.694C334.857 149.526 336.023 149.337 337.178 149.138C337.283 149.117 337.398 149.106 337.503 149.085C337.808 149.033 338.112 148.959 338.427 148.907C338.973 148.802 339.509 148.697 340.044 148.592C340.485 148.497 340.916 148.403 341.357 148.308C341.882 148.193 342.407 148.067 342.932 147.941C343.373 147.836 343.804 147.72 344.234 147.615C344.749 147.479 345.263 147.342 345.778 147.206C346.208 147.09 346.639 146.964 347.059 146.838C347.563 146.691 348.067 146.534 348.571 146.376C348.791 146.303 349.012 146.25 349.232 146.177C349.39 146.124 349.537 146.061 349.694 146.019C350.597 145.715 351.501 145.41 352.383 145.074C352.572 145.001 352.761 144.938 352.939 144.875C353.989 144.476 355.018 144.055 356.026 143.614C356.289 143.499 356.551 143.383 356.814 143.257C357.591 142.911 358.357 142.554 359.113 142.176C359.397 142.039 359.68 141.903 359.953 141.756C360.919 141.262 361.875 140.748 362.799 140.212C363.051 140.065 363.303 139.918 363.555 139.761C363.786 139.624 364.007 139.477 364.238 139.33C364.616 139.089 364.994 138.858 365.361 138.616C365.697 138.396 366.023 138.175 366.348 137.944C366.705 137.703 367.052 137.451 367.398 137.209C367.713 136.978 368.018 136.747 368.322 136.516C368.648 136.264 368.973 136.012 369.288 135.76C369.582 135.529 369.866 135.287 370.139 135.046C370.444 134.783 370.738 134.531 371.032 134.269C371.147 134.164 371.284 134.059 371.399 133.943C371.641 133.723 371.861 133.502 372.092 133.282C372.176 133.198 372.26 133.124 372.344 133.04C372.796 132.599 373.226 132.148 373.636 131.696C373.73 131.591 373.825 131.486 373.919 131.381C377.93 126.885 380.807 121.161 380.807 115.032L381.438 89.8622Z" fill="#3072BE"/>
<path d="M363.146 64.3146C387.423 78.3328 387.549 101.056 363.429 115.064C339.32 129.071 300.09 129.071 275.813 115.064C251.546 101.056 251.42 78.3328 275.529 64.3146C299.649 50.2964 338.879 50.2964 363.146 64.3146Z" fill="#E9F4FB"/>
<path d="M390.25 69.6952C390.239 69.8002 390.228 69.9052 390.218 70.0102C390.207 70.0942 390.176 70.1782 390.155 70.2622C390.134 70.3567 390.102 70.4617 390.071 70.5563C390.039 70.6403 390.008 70.7137 389.966 70.7977C389.924 70.9027 389.871 71.0077 389.819 71.1127C389.777 71.1862 389.735 71.2598 389.682 71.3333C389.609 71.4488 389.535 71.5642 389.451 71.6798C389.399 71.7428 389.346 71.8163 389.294 71.8793C389.168 72.0368 389.021 72.1838 388.874 72.3308C388.821 72.3833 388.769 72.4358 388.706 72.4883C388.611 72.5723 388.506 72.6563 388.401 72.7403C388.307 72.8138 388.223 72.8873 388.128 72.9608C388.013 73.0449 387.897 73.1183 387.771 73.2023C387.645 73.2863 387.53 73.3704 387.393 73.4439L326.637 108.747C326.207 108.999 325.734 109.209 325.251 109.408C325.125 109.461 324.999 109.503 324.863 109.555C324.558 109.66 324.243 109.755 323.928 109.839C323.603 109.933 323.277 110.017 322.931 110.091C322.532 110.175 322.133 110.248 321.723 110.301C321.629 110.311 321.523 110.332 321.429 110.343C320.872 110.406 320.316 110.427 319.759 110.437C319.675 110.437 319.581 110.437 319.497 110.437C318.94 110.437 318.394 110.406 317.848 110.343C317.764 110.332 317.68 110.322 317.596 110.311C317.05 110.248 316.525 110.154 316 110.038C315.906 110.017 315.811 109.996 315.717 109.965C315.244 109.849 314.782 109.702 314.341 109.545C314.257 109.513 314.173 109.492 314.089 109.461C313.554 109.251 313.05 109.02 312.577 108.747L251.432 73.4439C249.479 72.3203 248.503 70.8292 248.503 69.3487L247.873 291.897C247.873 293.378 248.849 294.858 250.802 295.992L311.947 331.295C312.398 331.557 312.871 331.778 313.375 331.978C313.396 331.988 313.428 331.999 313.459 332.009C313.543 332.04 313.627 332.061 313.711 332.093C313.995 332.198 314.289 332.303 314.583 332.387C314.751 332.429 314.919 332.471 315.087 332.513C315.181 332.534 315.276 332.566 315.37 332.587C315.454 332.608 315.538 332.629 315.622 332.65C315.948 332.713 316.273 332.776 316.609 332.818C316.725 332.839 316.851 332.839 316.966 332.86C317.05 332.87 317.134 332.881 317.218 332.891C317.334 332.902 317.46 332.923 317.575 332.933C317.901 332.965 318.226 332.975 318.552 332.986C318.657 332.986 318.751 332.986 318.856 332.986C318.951 332.986 319.035 332.986 319.119 332.986C319.266 332.986 319.413 332.986 319.56 332.986C319.927 332.975 320.295 332.944 320.662 332.912C320.704 332.912 320.746 332.902 320.788 332.891C320.883 332.881 320.988 332.86 321.083 332.849C321.366 332.818 321.649 332.786 321.933 332.734C322.059 332.713 322.164 332.671 322.29 332.65C322.626 332.576 322.962 332.492 323.288 332.398C323.466 332.345 323.645 332.324 323.813 332.261C323.949 332.219 324.075 332.156 324.212 332.103C324.338 332.061 324.474 332.009 324.6 331.957C325.083 331.757 325.556 331.547 325.986 331.295L386.742 295.992C386.784 295.971 386.826 295.94 386.868 295.919C386.963 295.866 387.036 295.803 387.12 295.751C387.246 295.677 387.362 295.593 387.477 295.509C387.572 295.436 387.666 295.362 387.75 295.289C387.855 295.205 387.96 295.121 388.055 295.037C388.076 295.016 388.097 295.005 388.118 294.984C388.16 294.953 388.181 294.911 388.223 294.869C388.38 294.722 388.517 294.575 388.643 294.417C388.674 294.386 388.706 294.354 388.737 294.323C388.769 294.291 388.779 294.249 388.811 294.218C388.895 294.102 388.968 293.987 389.042 293.871C389.073 293.819 389.115 293.777 389.136 293.724C389.147 293.703 389.157 293.672 389.168 293.651C389.22 293.546 389.273 293.441 389.315 293.336C389.336 293.273 389.378 293.22 389.399 293.157C389.409 293.136 389.409 293.115 389.42 293.094C389.451 293 389.483 292.895 389.504 292.8C389.525 292.737 389.546 292.663 389.556 292.6C389.556 292.579 389.556 292.569 389.567 292.548C389.588 292.443 389.598 292.338 389.598 292.233C389.609 292.17 389.62 292.096 389.62 292.033C389.62 292.002 389.62 291.97 389.62 291.949L390.25 69.4012C390.271 69.5062 390.26 69.6007 390.25 69.6952Z" fill="url(#paint0_linear_3030_1247)"/>
<path d="M277.65 150.673C284.381 154.559 284.412 160.859 277.734 164.744L202.781 208.3C196.092 212.185 185.214 212.185 178.483 208.3L103.037 164.744C96.3059 160.859 96.2743 154.559 102.953 150.673L177.905 107.117C184.594 103.232 195.473 103.232 202.204 107.117L277.65 150.673Z" fill="#ECF5FE"/>
<path d="M282.669 158.265C282.648 158.444 282.638 158.622 282.607 158.801C282.575 158.948 282.533 159.095 282.501 159.242C282.459 159.41 282.418 159.588 282.355 159.756C282.302 159.893 282.239 160.04 282.176 160.176C282.102 160.355 282.018 160.534 281.924 160.712C281.85 160.838 281.777 160.964 281.693 161.09C281.567 161.29 281.441 161.489 281.294 161.689C281.147 161.878 281 162.067 280.842 162.256C280.8 162.298 280.769 162.34 280.727 162.392C280.506 162.634 280.265 162.875 280.002 163.106C279.834 163.253 279.656 163.4 279.477 163.547C279.32 163.673 279.162 163.799 278.994 163.925C278.795 164.062 278.585 164.198 278.375 164.335C278.165 164.471 277.955 164.618 277.724 164.755L202.771 208.311C202.256 208.605 201.71 208.878 201.154 209.13C200.996 209.203 200.828 209.266 200.66 209.34C200.219 209.529 199.768 209.697 199.306 209.855C199.138 209.907 198.98 209.97 198.812 210.023C198.518 210.117 198.224 210.191 197.93 210.275C197.699 210.338 197.479 210.401 197.248 210.453C196.933 210.527 196.618 210.59 196.303 210.653C196.082 210.695 195.872 210.747 195.652 210.789C195.011 210.905 194.36 210.989 193.698 211.062C193.499 211.083 193.289 211.094 193.089 211.115C192.701 211.146 192.312 211.178 191.924 211.188C191.672 211.199 191.43 211.209 191.178 211.209C190.863 211.22 190.548 211.22 190.233 211.209C189.971 211.209 189.708 211.199 189.446 211.188C189.152 211.178 188.868 211.157 188.574 211.146C188.312 211.125 188.039 211.104 187.776 211.083C187.493 211.052 187.209 211.02 186.915 210.989C186.653 210.957 186.401 210.915 186.149 210.884C185.844 210.831 185.539 210.779 185.235 210.726C184.993 210.684 184.763 210.632 184.521 210.579C184.164 210.495 183.807 210.411 183.45 210.317C183.25 210.264 183.051 210.212 182.862 210.159C182.232 209.97 181.612 209.771 181.014 209.54C180.72 209.424 180.436 209.298 180.153 209.172C180.006 209.109 179.848 209.046 179.701 208.972C179.271 208.762 178.851 208.552 178.441 208.311L102.995 164.755C99.6032 162.802 97.9127 160.229 97.9232 157.667L97.293 380.215C97.2825 382.777 98.9732 385.35 102.365 387.303L177.811 430.859C178.221 431.09 178.641 431.311 179.071 431.521C179.218 431.594 179.376 431.647 179.523 431.72C179.775 431.836 180.027 431.951 180.289 432.056C180.321 432.067 180.352 432.077 180.384 432.088C180.982 432.319 181.591 432.529 182.232 432.707C182.284 432.718 182.326 432.739 182.379 432.76C182.526 432.802 182.673 432.833 182.82 432.865C183.177 432.959 183.523 433.043 183.891 433.127C183.986 433.148 184.08 433.18 184.175 433.201C184.311 433.232 184.458 433.253 184.605 433.274C184.909 433.327 185.214 433.39 185.519 433.432C185.645 433.453 185.76 433.474 185.886 433.495C186.023 433.516 186.159 433.526 186.285 433.537C186.569 433.568 186.852 433.6 187.146 433.631C187.283 433.642 187.419 433.663 187.556 433.673C187.682 433.684 187.808 433.684 187.944 433.694C188.238 433.715 188.522 433.726 188.816 433.736C188.963 433.747 189.11 433.757 189.257 433.757C189.372 433.757 189.488 433.757 189.603 433.757C189.918 433.757 190.233 433.757 190.548 433.757C190.706 433.757 190.863 433.757 191.021 433.757C191.115 433.757 191.199 433.747 191.294 433.736C191.682 433.715 192.071 433.694 192.459 433.663C192.617 433.652 192.774 433.642 192.932 433.631C192.984 433.631 193.026 433.621 193.079 433.61C193.741 433.537 194.392 433.453 195.032 433.337C195.064 433.327 195.095 433.327 195.127 433.327C195.316 433.295 195.494 433.243 195.683 433.211C195.998 433.148 196.313 433.085 196.628 433.012C196.859 432.959 197.08 432.886 197.311 432.833C197.605 432.749 197.899 432.676 198.193 432.581C198.256 432.56 198.319 432.55 198.382 432.529C198.487 432.497 198.581 432.445 198.686 432.413C199.148 432.256 199.6 432.088 200.041 431.899C200.209 431.825 200.366 431.762 200.534 431.689C201.091 431.437 201.637 431.164 202.151 430.87L277.104 387.314C277.178 387.272 277.241 387.23 277.314 387.188C277.472 387.093 277.608 386.988 277.755 386.893C277.965 386.757 278.175 386.621 278.375 386.484C278.543 386.358 278.7 386.232 278.858 386.106C279.036 385.959 279.225 385.822 279.383 385.675C279.414 385.644 279.456 385.623 279.488 385.591C279.708 385.392 279.908 385.182 280.107 384.972C280.149 384.93 280.181 384.888 280.223 384.835C280.338 384.709 280.454 384.573 280.559 384.447C280.601 384.394 280.632 384.331 280.674 384.268C280.821 384.069 280.958 383.869 281.084 383.67C281.136 383.586 281.21 383.502 281.252 383.418C281.273 383.376 281.294 383.334 281.315 383.292C281.409 383.113 281.483 382.935 281.567 382.756C281.609 382.651 281.672 382.546 281.714 382.441C281.724 382.41 281.735 382.368 281.745 382.336C281.808 382.168 281.85 381.99 281.892 381.822C281.924 381.706 281.966 381.591 281.987 381.475C281.997 381.444 281.987 381.412 281.997 381.381C282.029 381.202 282.039 381.024 282.06 380.835C282.071 380.719 282.092 380.604 282.102 380.488C282.102 380.436 282.102 380.383 282.102 380.341L282.733 157.793C282.722 157.929 282.69 158.097 282.669 158.265Z" fill="url(#paint1_linear_3030_1247)"/>
<path d="M282.669 158.265C282.648 158.444 282.638 158.622 282.607 158.801C282.575 158.948 282.533 159.095 282.501 159.242C282.459 159.41 282.418 159.588 282.355 159.756C282.302 159.893 282.239 160.04 282.176 160.176C282.102 160.355 282.018 160.534 281.924 160.712C281.85 160.838 281.777 160.964 281.693 161.09C281.567 161.29 281.441 161.489 281.294 161.689C281.147 161.878 281 162.067 280.842 162.256C280.8 162.298 280.769 162.34 280.727 162.392C280.506 162.634 280.265 162.875 280.002 163.106C279.834 163.253 279.656 163.4 279.477 163.547C279.32 163.673 279.162 163.799 278.994 163.925C278.795 164.062 278.585 164.198 278.375 164.335C278.165 164.471 277.955 164.618 277.724 164.755L202.771 208.311C202.256 208.605 201.71 208.878 201.154 209.13C200.996 209.203 200.828 209.266 200.66 209.34C200.219 209.529 199.768 209.697 199.306 209.855C199.138 209.907 198.98 209.97 198.812 210.023C198.518 210.117 198.224 210.191 197.93 210.275C197.699 210.338 197.479 210.401 197.248 210.453C196.933 210.527 196.618 210.59 196.303 210.653C196.082 210.695 195.872 210.747 195.652 210.789C195.011 210.905 194.36 210.989 193.698 211.062C193.499 211.083 193.289 211.094 193.089 211.115C192.701 211.146 192.312 211.178 191.924 211.188C191.672 211.199 191.43 211.209 191.178 211.209C190.863 211.22 190.548 211.22 190.233 211.209C189.971 211.209 189.708 211.199 189.446 211.188C189.152 211.178 188.868 211.157 188.574 211.146C188.312 211.125 188.039 211.104 187.776 211.083C187.493 211.052 187.209 211.02 186.915 210.989C186.653 210.957 186.401 210.915 186.149 210.884C185.844 210.831 185.539 210.779 185.235 210.726C184.993 210.684 184.763 210.632 184.521 210.579C184.164 210.495 183.807 210.411 183.45 210.317C183.25 210.264 183.051 210.212 182.862 210.159C182.232 209.97 181.612 209.771 181.014 209.54C180.72 209.424 180.436 209.298 180.153 209.172C180.006 209.109 179.848 209.046 179.701 208.972C179.271 208.762 178.851 208.552 178.441 208.311L102.995 164.755C99.6032 162.802 97.9127 160.229 97.9232 157.667L97.293 380.215C97.2825 382.777 98.9732 385.35 102.365 387.303L177.811 430.859C178.221 431.09 178.641 431.311 179.071 431.521C179.218 431.594 179.376 431.647 179.523 431.72C179.775 431.836 180.027 431.951 180.289 432.056C180.321 432.067 180.352 432.077 180.384 432.088C180.982 432.319 181.591 432.529 182.232 432.707C182.284 432.718 182.326 432.739 182.379 432.76C182.526 432.802 182.673 432.833 182.82 432.865C183.177 432.959 183.523 433.043 183.891 433.127C183.986 433.148 184.08 433.18 184.175 433.201C184.311 433.232 184.458 433.253 184.605 433.274C184.909 433.327 185.214 433.39 185.519 433.432C185.645 433.453 185.76 433.474 185.886 433.495C186.023 433.516 186.159 433.526 186.285 433.537C186.569 433.568 186.852 433.6 187.146 433.631C187.283 433.642 187.419 433.663 187.556 433.673C187.682 433.684 187.808 433.684 187.944 433.694C188.238 433.715 188.522 433.726 188.816 433.736C188.963 433.747 189.11 433.757 189.257 433.757C189.372 433.757 189.488 433.757 189.603 433.757C189.918 433.757 190.233 433.757 190.548 433.757C190.706 433.757 190.863 433.757 191.021 433.757C191.115 433.757 191.199 433.747 191.294 433.736C191.682 433.715 192.071 433.694 192.459 433.663C192.617 433.652 192.774 433.642 192.932 433.631C192.984 433.631 193.026 433.621 193.079 433.61C193.741 433.537 194.392 433.453 195.032 433.337C195.064 433.327 195.095 433.327 195.127 433.327C195.316 433.295 195.494 433.243 195.683 433.211C195.998 433.148 196.313 433.085 196.628 433.012C196.859 432.959 197.08 432.886 197.311 432.833C197.605 432.749 197.899 432.676 198.193 432.581C198.256 432.56 198.319 432.55 198.382 432.529C198.487 432.497 198.581 432.445 198.686 432.413C199.148 432.256 199.6 432.088 200.041 431.899C200.209 431.825 200.366 431.762 200.534 431.689C201.091 431.437 201.637 431.164 202.151 430.87L277.104 387.314C277.178 387.272 277.241 387.23 277.314 387.188C277.472 387.093 277.608 386.988 277.755 386.893C277.965 386.757 278.175 386.621 278.375 386.484C278.543 386.358 278.7 386.232 278.858 386.106C279.036 385.959 279.225 385.822 279.383 385.675C279.414 385.644 279.456 385.623 279.488 385.591C279.708 385.392 279.908 385.182 280.107 384.972C280.149 384.93 280.181 384.888 280.223 384.835C280.338 384.709 280.454 384.573 280.559 384.447C280.601 384.394 280.632 384.331 280.674 384.268C280.821 384.069 280.958 383.869 281.084 383.67C281.136 383.586 281.21 383.502 281.252 383.418C281.273 383.376 281.294 383.334 281.315 383.292C281.409 383.113 281.483 382.935 281.567 382.756C281.609 382.651 281.672 382.546 281.714 382.441C281.724 382.41 281.735 382.368 281.745 382.336C281.808 382.168 281.85 381.99 281.892 381.822C281.924 381.706 281.966 381.591 281.987 381.475C281.997 381.444 281.987 381.412 281.997 381.381C282.029 381.202 282.039 381.024 282.06 380.835C282.071 380.719 282.092 380.604 282.102 380.488C282.102 380.436 282.102 380.383 282.102 380.341L282.733 157.793C282.722 157.929 282.69 158.097 282.669 158.265Z" fill="url(#paint2_linear_3030_1247)"/>
<path opacity="0.1" d="M138.331 130.567L113.708 144.52L183.473 188.021L209.738 172.426L138.331 130.567Z" fill="url(#paint3_linear_3030_1247)"/>
<path opacity="0.1" d="M165.417 114.152L146.539 125.232L216.304 168.733L236.823 156.011L165.417 114.152Z" fill="url(#paint4_linear_3030_1247)"/>
<path d="M389.491 238.836C393.376 241.083 393.397 244.727 389.533 246.974L328.776 282.277C324.912 284.524 318.623 284.524 314.727 282.277L253.582 246.974C249.697 244.727 249.676 241.083 253.54 238.846L314.296 203.544C318.16 201.297 324.45 201.297 328.335 203.544L389.491 238.836Z" fill="#ECF5FE"/>
<path d="M392.399 243.225C392.389 243.33 392.378 243.435 392.368 243.54C392.357 243.624 392.326 243.708 392.305 243.792C392.284 243.886 392.252 243.991 392.221 244.086C392.189 244.17 392.158 244.243 392.116 244.327C392.074 244.432 392.021 244.537 391.969 244.642C391.927 244.716 391.885 244.789 391.832 244.863C391.759 244.978 391.685 245.094 391.601 245.209C391.549 245.272 391.496 245.346 391.444 245.409C391.318 245.566 391.171 245.714 391.024 245.861C390.971 245.913 390.919 245.966 390.856 246.018C390.761 246.102 390.656 246.186 390.551 246.27C390.457 246.344 390.373 246.417 390.278 246.491C390.163 246.575 390.047 246.648 389.921 246.732C389.795 246.816 389.68 246.9 389.543 246.974L328.787 282.276C328.356 282.528 327.884 282.738 327.401 282.938C327.275 282.99 327.149 283.032 327.012 283.085C326.708 283.19 326.393 283.284 326.078 283.368C325.752 283.463 325.427 283.547 325.08 283.62C324.681 283.704 324.282 283.778 323.873 283.83C323.778 283.841 323.673 283.862 323.579 283.872C323.022 283.935 322.466 283.956 321.909 283.967C321.825 283.967 321.731 283.967 321.647 283.967C321.09 283.967 320.544 283.935 319.998 283.872C319.914 283.862 319.83 283.851 319.746 283.841C319.2 283.778 318.675 283.683 318.15 283.568C318.055 283.547 317.961 283.526 317.866 283.494C317.394 283.379 316.932 283.232 316.491 283.074C316.407 283.043 316.323 283.022 316.239 282.99C315.703 282.78 315.199 282.549 314.727 282.276L253.582 246.974C251.629 245.85 250.653 244.359 250.653 242.878L250.022 465.427C250.022 466.907 250.999 468.388 252.952 469.522L314.097 504.825C314.548 505.087 315.021 505.308 315.525 505.507C315.546 505.518 315.577 505.528 315.609 505.539C315.693 505.57 315.777 505.591 315.861 505.623C316.144 505.728 316.438 505.833 316.732 505.917C316.9 505.959 317.068 506.001 317.236 506.043C317.331 506.064 317.425 506.095 317.52 506.116C317.604 506.137 317.688 506.158 317.772 506.179C318.097 506.242 318.423 506.305 318.759 506.347C318.874 506.368 319 506.368 319.116 506.389C319.2 506.4 319.284 506.41 319.368 506.421C319.483 506.431 319.609 506.452 319.725 506.463C320.05 506.494 320.376 506.505 320.702 506.515C320.807 506.515 320.901 506.515 321.006 506.515C321.101 506.515 321.185 506.515 321.269 506.515C321.416 506.515 321.563 506.515 321.71 506.515C322.077 506.505 322.445 506.473 322.812 506.442C322.854 506.442 322.896 506.431 322.938 506.421C323.033 506.41 323.138 506.389 323.232 506.379C323.516 506.347 323.799 506.316 324.083 506.263C324.209 506.242 324.314 506.2 324.44 506.179C324.776 506.106 325.112 506.022 325.437 505.927C325.616 505.875 325.794 505.854 325.962 505.791C326.099 505.749 326.225 505.686 326.361 505.633C326.487 505.591 326.624 505.539 326.75 505.486C327.233 505.287 327.705 505.077 328.136 504.825L388.892 469.522C388.934 469.501 388.976 469.469 389.018 469.448C389.113 469.396 389.186 469.333 389.27 469.28C389.396 469.207 389.512 469.123 389.627 469.039C389.722 468.965 389.816 468.892 389.9 468.818C390.005 468.734 390.11 468.65 390.205 468.566C390.226 468.545 390.247 468.535 390.268 468.514C390.31 468.482 390.331 468.44 390.373 468.398C390.53 468.251 390.667 468.104 390.793 467.947C390.824 467.915 390.856 467.884 390.887 467.852C390.919 467.821 390.929 467.779 390.961 467.747C391.045 467.632 391.118 467.516 391.192 467.401C391.223 467.348 391.265 467.306 391.286 467.254C391.297 467.233 391.307 467.201 391.318 467.18C391.37 467.075 391.423 466.97 391.465 466.865C391.486 466.802 391.528 466.75 391.549 466.687C391.559 466.666 391.559 466.645 391.57 466.624C391.601 466.529 391.633 466.424 391.654 466.33C391.675 466.267 391.696 466.193 391.706 466.13C391.706 466.109 391.706 466.099 391.717 466.078C391.738 465.973 391.748 465.868 391.748 465.763C391.759 465.7 391.769 465.626 391.769 465.563C391.769 465.532 391.769 465.5 391.769 465.479L392.399 242.931C392.42 243.036 392.41 243.13 392.399 243.225Z" fill="url(#paint5_linear_3030_1247)"/>
<path d="M392.399 243.225C392.389 243.33 392.378 243.435 392.368 243.54C392.357 243.624 392.326 243.708 392.305 243.792C392.284 243.886 392.252 243.991 392.221 244.086C392.189 244.17 392.158 244.243 392.116 244.327C392.074 244.432 392.021 244.537 391.969 244.642C391.927 244.716 391.885 244.789 391.832 244.863C391.759 244.978 391.685 245.094 391.601 245.209C391.549 245.272 391.496 245.346 391.444 245.409C391.318 245.566 391.171 245.714 391.024 245.861C390.971 245.913 390.919 245.966 390.856 246.018C390.761 246.102 390.656 246.186 390.551 246.27C390.457 246.344 390.373 246.417 390.278 246.491C390.163 246.575 390.047 246.648 389.921 246.732C389.795 246.816 389.68 246.9 389.543 246.974L328.787 282.276C328.356 282.528 327.884 282.738 327.401 282.938C327.275 282.99 327.149 283.032 327.012 283.085C326.708 283.19 326.393 283.284 326.078 283.368C325.752 283.463 325.427 283.547 325.08 283.62C324.681 283.704 324.282 283.778 323.873 283.83C323.778 283.841 323.673 283.862 323.579 283.872C323.022 283.935 322.466 283.956 321.909 283.967C321.825 283.967 321.731 283.967 321.647 283.967C321.09 283.967 320.544 283.935 319.998 283.872C319.914 283.862 319.83 283.851 319.746 283.841C319.2 283.778 318.675 283.683 318.15 283.568C318.055 283.547 317.961 283.526 317.866 283.494C317.394 283.379 316.932 283.232 316.491 283.074C316.407 283.043 316.323 283.022 316.239 282.99C315.703 282.78 315.199 282.549 314.727 282.276L253.582 246.974C251.629 245.85 250.653 244.359 250.653 242.878L250.022 465.427C250.022 466.907 250.999 468.388 252.952 469.522L314.097 504.825C314.548 505.087 315.021 505.308 315.525 505.507C315.546 505.518 315.577 505.528 315.609 505.539C315.693 505.57 315.777 505.591 315.861 505.623C316.144 505.728 316.438 505.833 316.732 505.917C316.9 505.959 317.068 506.001 317.236 506.043C317.331 506.064 317.425 506.095 317.52 506.116C317.604 506.137 317.688 506.158 317.772 506.179C318.097 506.242 318.423 506.305 318.759 506.347C318.874 506.368 319 506.368 319.116 506.389C319.2 506.4 319.284 506.41 319.368 506.421C319.483 506.431 319.609 506.452 319.725 506.463C320.05 506.494 320.376 506.505 320.702 506.515C320.807 506.515 320.901 506.515 321.006 506.515C321.101 506.515 321.185 506.515 321.269 506.515C321.416 506.515 321.563 506.515 321.71 506.515C322.077 506.505 322.445 506.473 322.812 506.442C322.854 506.442 322.896 506.431 322.938 506.421C323.033 506.41 323.138 506.389 323.232 506.379C323.516 506.347 323.799 506.316 324.083 506.263C324.209 506.242 324.314 506.2 324.44 506.179C324.776 506.106 325.112 506.022 325.437 505.927C325.616 505.875 325.794 505.854 325.962 505.791C326.099 505.749 326.225 505.686 326.361 505.633C326.487 505.591 326.624 505.539 326.75 505.486C327.233 505.287 327.705 505.077 328.136 504.825L388.892 469.522C388.934 469.501 388.976 469.469 389.018 469.448C389.113 469.396 389.186 469.333 389.27 469.28C389.396 469.207 389.512 469.123 389.627 469.039C389.722 468.965 389.816 468.892 389.9 468.818C390.005 468.734 390.11 468.65 390.205 468.566C390.226 468.545 390.247 468.535 390.268 468.514C390.31 468.482 390.331 468.44 390.373 468.398C390.53 468.251 390.667 468.104 390.793 467.947C390.824 467.915 390.856 467.884 390.887 467.852C390.919 467.821 390.929 467.779 390.961 467.747C391.045 467.632 391.118 467.516 391.192 467.401C391.223 467.348 391.265 467.306 391.286 467.254C391.297 467.233 391.307 467.201 391.318 467.18C391.37 467.075 391.423 466.97 391.465 466.865C391.486 466.802 391.528 466.75 391.549 466.687C391.559 466.666 391.559 466.645 391.57 466.624C391.601 466.529 391.633 466.424 391.654 466.33C391.675 466.267 391.696 466.193 391.706 466.13C391.706 466.109 391.706 466.099 391.717 466.078C391.738 465.973 391.748 465.868 391.748 465.763C391.759 465.7 391.769 465.626 391.769 465.563C391.769 465.532 391.769 465.5 391.769 465.479L392.399 242.931C392.42 243.036 392.41 243.13 392.399 243.225Z" fill="url(#paint6_linear_3030_1247)"/>
<path d="M267.499 255.401V291.514" stroke="#158BF8" stroke-width="1.28977"/>
<circle cx="338.006" cy="313.01" r="1.71969" fill="#158BF8"/>
<circle cx="296.733" cy="291.514" r="1.71969" fill="#158BF8"/>
<path d="M328.548 283.346V299.99C328.548 301.347 330.046 302.169 331.191 301.44L335.363 298.785C336.508 298.057 338.006 298.879 338.006 300.236V311.291" stroke="#158BF8" stroke-width="1.28977"/>
<path d="M317.799 398.995V329.875C317.799 327.149 316.365 324.623 314.023 323.227L299.876 314.796C297.794 313.556 296.518 311.311 296.518 308.887V291.944" stroke="#158BF8" stroke-width="1.28977"/>
<path d="M374.676 268.149C375.385 267.743 375.967 268.066 375.967 268.879L376.041 298.727C376.041 299.539 375.469 300.524 374.76 300.93L348.674 315.9C347.964 316.307 347.388 315.984 347.388 315.171L347.314 285.323C347.314 284.51 347.885 283.521 348.595 283.119L374.676 268.149Z" fill="#0967BD"/>
<path fill-rule="evenodd" clip-rule="evenodd" d="M347.314 289.245V285.858C347.314 284.694 347.93 283.617 348.934 283.027L355.826 278.978L380.344 293.134C381.939 294.054 384.515 294.054 386.097 293.134L410.973 278.679C412.555 277.759 412.547 276.267 410.956 275.347L392.456 264.671V249.492L434.783 273.919C437.736 275.627 437.752 278.396 434.815 280.104L388.635 306.937C385.698 308.645 380.918 308.645 377.957 306.937L347.314 289.245Z" fill="#ECF5FE"/>
<path opacity="0.2" d="M360.856 281.998L347.314 289.385V285.955C347.314 284.777 347.945 283.689 348.968 283.105L355.932 279.126L360.856 281.998Z" fill="#262626"/>
<path d="M404.812 151.317C406.324 152.189 407.542 154.299 407.542 156.042L407.416 200.712C407.416 202.444 406.177 203.148 404.676 202.276L360.09 176.539C358.578 175.668 357.36 173.547 357.36 171.814L357.486 127.145C357.486 125.402 358.715 124.709 360.227 125.58L404.812 151.317Z" fill="#60B2FE"/>
<path d="M391.508 159.14C393.02 160.012 394.238 162.133 394.238 163.866L394.112 208.535C394.112 210.267 392.873 210.971 391.371 210.099L346.786 184.363C345.274 183.491 344.056 181.37 344.056 179.637L344.182 134.968C344.182 133.225 345.421 132.522 346.922 133.393L391.508 159.14Z" fill="#FDC800"/>
<path d="M352.623 164.257L384.868 182.314V196.501L352.623 178.445V164.257Z" fill="#FDA700"/>
<path d="M239.407 279.844C241.425 281.001 241.435 282.864 239.428 284.01L224.523 292.554C222.516 293.7 219.25 293.711 217.233 292.554L202.23 284.01C200.212 282.864 200.201 280.99 202.208 279.844L217.113 271.3C219.12 270.143 222.386 270.154 224.403 271.3L239.407 279.844Z" fill="#60B2FE"/>
<path d="M275.908 189.369C277.861 190.493 277.872 192.331 275.929 193.454L257.06 204.417C255.117 205.54 251.957 205.54 250.003 204.417L242.191 199.901C240.238 198.767 240.228 196.94 242.17 195.817L261.04 184.854C262.982 183.731 266.143 183.72 268.096 184.854L275.908 189.369Z" fill="#60B2FE"/>
<path d="M290.599 206.17C292.552 207.304 292.562 209.131 290.62 210.255L271.75 221.217C269.808 222.341 266.647 222.351 264.694 221.217L256.882 216.702C254.928 215.578 254.918 213.741 256.861 212.617L275.73 201.655C277.673 200.521 280.833 200.531 282.786 201.655L290.599 206.17Z" fill="#60B2FE"/>
<path d="M181.423 250.069C183.744 251.413 183.754 253.576 181.455 254.91L145.385 275.869C143.086 277.202 139.348 277.202 137.027 275.869L100.716 254.91C98.406 253.576 98.3955 251.402 100.685 250.069L136.754 229.11C139.054 227.776 142.792 227.776 145.102 229.11L181.423 250.069Z" fill="#ECF5FE"/>
<path d="M183.177 252.515C183.177 252.715 183.135 252.925 183.072 253.124C183.061 253.145 183.061 253.166 183.051 253.187C182.988 253.376 182.893 253.555 182.767 253.733C182.746 253.765 182.725 253.796 182.704 253.828C182.578 254.006 182.421 254.174 182.232 254.342C182.116 254.447 181.959 254.552 181.822 254.647C181.696 254.731 181.591 254.825 181.455 254.909L145.385 275.869C145.133 276.016 144.85 276.142 144.566 276.257C144.493 276.289 144.409 276.32 144.335 276.341C144.157 276.404 143.968 276.457 143.779 276.509C143.59 276.562 143.39 276.614 143.191 276.656C142.949 276.709 142.718 276.751 142.466 276.782C142.414 276.793 142.351 276.803 142.298 276.803C141.973 276.835 141.637 276.856 141.301 276.856C141.248 276.856 141.196 276.856 141.143 276.856C140.818 276.856 140.482 276.835 140.167 276.803C140.114 276.803 140.072 276.793 140.02 276.782C139.694 276.74 139.379 276.688 139.064 276.614C139.012 276.604 138.949 276.583 138.896 276.572C138.612 276.499 138.339 276.415 138.077 276.32C138.024 276.299 137.983 276.289 137.93 276.268C137.615 276.142 137.31 276.005 137.027 275.837L100.716 254.878C99.5505 254.206 98.973 253.324 98.973 252.442L98.343 474.99C98.343 475.872 98.9205 476.754 100.086 477.426L136.397 498.385C136.659 498.543 136.953 498.679 137.247 498.795C137.258 498.805 137.279 498.805 137.3 498.816C137.342 498.837 137.394 498.847 137.447 498.868C137.625 498.931 137.793 498.994 137.972 499.047C138.066 499.078 138.172 499.099 138.266 499.12C138.319 499.131 138.382 499.152 138.434 499.162C138.487 499.173 138.539 499.194 138.591 499.204C138.78 499.246 138.98 499.278 139.18 499.309C139.253 499.32 139.316 499.32 139.39 499.33C139.442 499.341 139.484 499.341 139.537 499.351C139.61 499.362 139.684 499.372 139.757 499.372C139.946 499.393 140.146 499.404 140.335 499.404C140.398 499.404 140.45 499.404 140.513 499.404C140.566 499.404 140.618 499.404 140.671 499.404C140.755 499.404 140.849 499.404 140.933 499.404C141.154 499.393 141.374 499.383 141.584 499.362C141.605 499.362 141.637 499.351 141.658 499.351C141.721 499.341 141.773 499.33 141.826 499.33C141.994 499.309 142.172 499.288 142.33 499.257C142.403 499.246 142.466 499.215 142.54 499.204C142.739 499.162 142.939 499.11 143.128 499.057C143.233 499.026 143.338 499.015 143.443 498.984C143.527 498.952 143.6 498.921 143.684 498.889C143.758 498.858 143.842 498.837 143.915 498.805C144.199 498.69 144.482 498.564 144.734 498.417L180.804 477.458C180.825 477.447 180.856 477.426 180.877 477.416C180.993 477.353 181.066 477.269 181.171 477.195C181.318 477.09 181.465 476.996 181.581 476.891C181.591 476.88 181.612 476.87 181.623 476.859C181.759 476.733 181.885 476.597 181.99 476.471C182.011 476.439 182.032 476.408 182.053 476.376C182.074 476.345 182.095 476.313 182.116 476.282C182.148 476.229 182.19 476.177 182.221 476.124C182.284 476.009 182.337 475.904 182.379 475.788C182.389 475.767 182.389 475.757 182.389 475.736C182.4 475.715 182.4 475.694 182.41 475.673C182.431 475.599 182.463 475.526 182.473 475.452C182.494 475.337 182.505 475.232 182.515 475.116C182.515 475.095 182.515 475.085 182.515 475.064L183.177 252.515Z" fill="url(#paint7_linear_3030_1247)"/>
<path d="M183.177 252.515C183.177 252.715 183.135 252.925 183.072 253.124C183.061 253.145 183.061 253.166 183.051 253.187C182.988 253.376 182.893 253.555 182.767 253.733C182.746 253.765 182.725 253.796 182.704 253.828C182.578 254.006 182.421 254.174 182.232 254.342C182.116 254.447 181.959 254.552 181.822 254.647C181.696 254.731 181.591 254.825 181.455 254.909L145.385 275.869C145.133 276.016 144.85 276.142 144.566 276.257C144.493 276.289 144.409 276.32 144.335 276.341C144.157 276.404 143.968 276.457 143.779 276.509C143.59 276.562 143.39 276.614 143.191 276.656C142.949 276.709 142.718 276.751 142.466 276.782C142.414 276.793 142.351 276.803 142.298 276.803C141.973 276.835 141.637 276.856 141.301 276.856C141.248 276.856 141.196 276.856 141.143 276.856C140.818 276.856 140.482 276.835 140.167 276.803C140.114 276.803 140.072 276.793 140.02 276.782C139.694 276.74 139.379 276.688 139.064 276.614C139.012 276.604 138.949 276.583 138.896 276.572C138.612 276.499 138.339 276.415 138.077 276.32C138.024 276.299 137.983 276.289 137.93 276.268C137.615 276.142 137.31 276.005 137.027 275.837L100.716 254.878C99.5505 254.206 98.973 253.324 98.973 252.442L98.343 474.99C98.343 475.872 98.9205 476.754 100.086 477.426L136.397 498.385C136.659 498.543 136.953 498.679 137.247 498.795C137.258 498.805 137.279 498.805 137.3 498.816C137.342 498.837 137.394 498.847 137.447 498.868C137.625 498.931 137.793 498.994 137.972 499.047C138.066 499.078 138.172 499.099 138.266 499.12C138.319 499.131 138.382 499.152 138.434 499.162C138.487 499.173 138.539 499.194 138.591 499.204C138.78 499.246 138.98 499.278 139.18 499.309C139.253 499.32 139.316 499.32 139.39 499.33C139.442 499.341 139.484 499.341 139.537 499.351C139.61 499.362 139.684 499.372 139.757 499.372C139.946 499.393 140.146 499.404 140.335 499.404C140.398 499.404 140.45 499.404 140.513 499.404C140.566 499.404 140.618 499.404 140.671 499.404C140.755 499.404 140.849 499.404 140.933 499.404C141.154 499.393 141.374 499.383 141.584 499.362C141.605 499.362 141.637 499.351 141.658 499.351C141.721 499.341 141.773 499.33 141.826 499.33C141.994 499.309 142.172 499.288 142.33 499.257C142.403 499.246 142.466 499.215 142.54 499.204C142.739 499.162 142.939 499.11 143.128 499.057C143.233 499.026 143.338 499.015 143.443 498.984C143.527 498.952 143.6 498.921 143.684 498.889C143.758 498.858 143.842 498.837 143.915 498.805C144.199 498.69 144.482 498.564 144.734 498.417L180.804 477.458C180.825 477.447 180.856 477.426 180.877 477.416C180.993 477.353 181.066 477.269 181.171 477.195C181.318 477.09 181.465 476.996 181.581 476.891C181.591 476.88 181.612 476.87 181.623 476.859C181.759 476.733 181.885 476.597 181.99 476.471C182.011 476.439 182.032 476.408 182.053 476.376C182.074 476.345 182.095 476.313 182.116 476.282C182.148 476.229 182.19 476.177 182.221 476.124C182.284 476.009 182.337 475.904 182.379 475.788C182.389 475.767 182.389 475.757 182.389 475.736C182.4 475.715 182.4 475.694 182.41 475.673C182.431 475.599 182.463 475.526 182.473 475.452C182.494 475.337 182.505 475.232 182.515 475.116C182.515 475.095 182.515 475.085 182.515 475.064L183.177 252.515Z" fill="url(#paint8_linear_3030_1247)"/>
<path d="M112.067 260.587V271.538C112.067 273.418 112.987 275.18 114.531 276.254L119.041 279.392C120.585 280.466 121.506 282.227 121.506 284.108V319.682" stroke="#158BF8" stroke-width="1.23115"/>
<path d="M242.895 60.9309C244.848 62.0649 244.858 63.8921 242.916 65.0261L228.498 73.4055C226.556 74.5396 223.385 74.5396 221.432 73.4055L206.92 65.0261C204.967 63.8921 204.956 62.0649 206.899 60.9309L221.316 52.5515C223.259 51.4174 226.43 51.4174 228.383 52.5515L242.895 60.9309Z" fill="#60B2FE"/>
<path d="M127.652 60.671C129.07 59.8581 130.233 60.5045 130.233 62.1303L130.381 114.264C130.381 115.89 129.238 117.859 127.819 118.672L105.758 131.911C104.339 132.723 103.186 132.077 103.186 130.451L103.038 78.3177C103.038 76.6919 104.181 74.7135 105.6 73.9104L127.652 60.671Z" fill="#FDC800"/>
<path d="M125.199 120.236L105.758 131.91C104.339 132.723 103.186 132.077 103.186 130.451L103.038 106.693L125.199 120.236Z" fill="#FDA700"/>
<path d="M158.583 42.6142C160.002 41.8013 161.165 42.4477 161.165 44.0735L161.313 96.2075C161.313 97.8333 160.17 99.8019 158.751 100.615L141.871 110.707C140.453 111.52 139.3 110.873 139.3 109.248L139.152 57.1141C139.152 55.4883 140.295 53.5099 141.714 52.7068L158.583 42.6142Z" fill="#ECF5FE"/>
<path d="M295.336 103.821L304.217 109.333C306.916 111.009 306.789 114.978 303.987 116.477L294.11 121.76C290.42 123.734 288.115 127.58 288.115 131.765V173.084C288.115 176.533 286.392 179.754 283.522 181.667L280.379 183.762M222.615 161.585L209.401 169.442C206.734 171.028 206.706 174.88 209.351 176.504L229.98 189.171C231.813 190.297 232.93 192.294 232.93 194.445V266.921C232.93 271.317 230.599 275.383 226.805 277.604L218.076 282.713C214.179 284.995 211.784 289.172 211.784 293.688V311.926C211.784 323.462 202.432 332.814 190.896 332.814C179.36 332.814 170.008 323.462 170.008 311.926V269.008C170.008 266.047 168.422 263.313 165.851 261.843L155.567 255.967" stroke="white" stroke-width="2.063"/>
<path d="M360.111 70.6395L360.069 83.4817L347.164 85.8758L347.206 73.0441L360.111 70.6395Z" fill="#0879E2"/>
<path d="M339.11 63.1105C338.522 62.7745 337.913 62.449 337.283 62.1445C337.073 62.05 336.863 61.9555 336.653 61.861C336.222 61.6615 335.792 61.4725 335.34 61.2939C335.256 61.2624 335.172 61.2204 335.088 61.1889C334.805 61.0734 334.521 60.9789 334.227 60.8739C334.038 60.8109 333.86 60.7374 333.671 60.6744C333.083 60.4749 332.494 60.2859 331.885 60.1074C331.686 60.0444 331.486 59.9919 331.287 59.9289C331.182 59.8974 331.077 59.8764 330.982 59.8554C330.321 59.6769 329.649 59.5089 328.966 59.3618C328.903 59.3513 328.83 59.3303 328.767 59.3093C328.746 59.3093 328.725 59.2988 328.693 59.2988C327.99 59.1518 327.265 59.0363 326.541 58.9208C326.467 58.9103 326.404 58.8998 326.331 58.8893C325.942 58.8368 325.543 58.7843 325.144 58.7423C324.567 58.6688 323.979 58.6163 323.391 58.5638C323.37 58.5638 323.348 58.5638 323.327 58.5533C323.275 58.5533 323.223 58.5533 323.16 58.5428C322.403 58.4798 321.637 58.4483 320.87 58.4168C320.776 58.4168 320.671 58.4063 320.576 58.4063C320.524 58.4063 320.461 58.4063 320.408 58.4063C319.579 58.3853 318.76 58.3958 317.93 58.4168C317.857 58.4168 317.794 58.4168 317.72 58.4168C317.636 58.4168 317.552 58.4273 317.468 58.4378C316.565 58.4693 315.652 58.5323 314.759 58.6163C314.717 58.6163 314.675 58.6163 314.644 58.6268C314.455 58.6478 314.276 58.6688 314.087 58.6898C313.751 58.7318 313.415 58.7633 313.079 58.8053C312.827 58.8368 312.585 58.8788 312.333 58.9103C312.008 58.9628 311.682 59.0048 311.357 59.0678C311.262 59.0888 311.168 59.0993 311.073 59.1098C310.979 59.1308 310.895 59.1518 310.8 59.1728C310.002 59.3198 309.215 59.4878 308.438 59.6769C308.427 59.6769 308.427 59.6769 308.417 59.6874C307.65 59.8764 306.894 60.0969 306.159 60.3279C306.075 60.3594 305.981 60.3804 305.886 60.4014C305.802 60.4329 305.718 60.4644 305.634 60.4854C305.33 60.5904 305.025 60.6954 304.721 60.8004C304.5 60.8844 304.28 60.9579 304.069 61.0419C303.754 61.1574 303.46 61.2834 303.156 61.4094C302.956 61.4934 302.757 61.567 302.557 61.6615C302.232 61.8085 301.906 61.966 301.591 62.113C301.434 62.1865 301.266 62.26 301.108 62.344C300.636 62.5855 300.174 62.8375 299.722 63.1C299.596 63.1735 299.46 63.2575 299.334 63.331C298.914 63.5831 298.515 63.8456 298.126 64.1186C298.042 64.1816 297.958 64.2341 297.874 64.2971C297.412 64.6331 296.961 64.9691 296.551 65.3156C296.509 65.3576 296.467 65.3892 296.425 65.4312C296.226 65.5992 296.037 65.7672 295.858 65.9352C295.711 66.0717 295.575 66.2187 295.428 66.3657C295.323 66.4707 295.218 66.5757 295.113 66.6807C294.766 67.0482 294.43 67.4158 294.136 67.7938C294.136 67.8043 294.126 67.8043 294.126 67.8148C294.115 67.8358 294.094 67.8568 294.083 67.8673C293.8 68.2348 293.548 68.6023 293.317 68.9698C293.264 69.0538 293.212 69.1378 293.159 69.2218C293.117 69.2953 293.065 69.3689 293.023 69.4319C292.844 69.7364 292.697 70.0514 292.561 70.3559C292.529 70.4189 292.508 70.4924 292.477 70.5554C292.414 70.7024 292.34 70.8599 292.288 71.0069C292.193 71.2589 292.109 71.5214 292.036 71.7735V71.784C291.962 72.0465 291.899 72.309 291.847 72.5715C291.805 72.7605 291.773 72.9495 291.752 73.1491C291.752 73.1596 291.752 73.1701 291.742 73.1806C291.689 73.4536 291.647 73.7371 291.616 74.0206C291.605 74.1046 291.605 74.1886 291.595 74.2726C291.584 74.4301 291.563 74.5876 291.563 74.7451C291.563 74.8291 291.563 74.9026 291.563 74.9866L291.532 87.8288C291.532 87.5978 291.553 87.3563 291.574 87.1253C291.584 87.0413 291.584 86.9572 291.595 86.8732C291.626 86.5897 291.668 86.2957 291.731 86.0122C291.794 85.5502 291.889 85.0986 292.025 84.6471V84.6366C292.141 84.2271 292.298 83.8281 292.466 83.4186C292.498 83.3556 292.519 83.2821 292.55 83.2191C292.729 82.8305 292.928 82.4525 293.149 82.0745C293.201 81.9905 293.254 81.9065 293.306 81.8225C293.537 81.4445 293.789 81.0769 294.073 80.7199C294.083 80.6989 294.105 80.6779 294.115 80.6674C294.409 80.2894 294.745 79.9114 295.102 79.5439C295.207 79.4389 295.312 79.3338 295.417 79.2288C295.732 78.9138 296.058 78.5988 296.415 78.2943C296.457 78.2523 296.499 78.2208 296.541 78.1788C296.961 77.8323 297.402 77.4962 297.874 77.1602C297.958 77.0972 298.042 77.0447 298.126 76.9817C298.63 76.6352 299.155 76.2992 299.722 75.9632C300.174 75.7007 300.636 75.4487 301.108 75.2071C301.266 75.1231 301.434 75.0496 301.591 74.9761C301.917 74.8186 302.232 74.6611 302.557 74.5246C302.757 74.4406 302.956 74.3566 303.156 74.2726C303.46 74.1466 303.765 74.0206 304.069 73.9051C304.29 73.8211 304.5 73.7476 304.721 73.6636C305.025 73.5586 305.33 73.443 305.634 73.3485C305.802 73.296 305.981 73.2435 306.149 73.191C306.894 72.96 307.65 72.7395 308.417 72.5505C308.427 72.5505 308.427 72.5505 308.438 72.5505C309.215 72.3615 310.002 72.1935 310.8 72.0465C310.989 72.015 311.168 71.973 311.357 71.9415C311.682 71.889 312.008 71.8365 312.333 71.784C312.585 71.742 312.827 71.7105 313.079 71.679C313.415 71.6369 313.751 71.595 314.087 71.5635C314.308 71.5425 314.539 71.511 314.759 71.49C315.662 71.4059 316.565 71.343 317.468 71.3115C317.626 71.301 317.773 71.3009 317.93 71.2904C318.76 71.2694 319.579 71.259 320.408 71.28C320.566 71.28 320.713 71.2904 320.87 71.2904C321.637 71.3114 322.403 71.3534 323.16 71.4164C323.233 71.4269 323.317 71.4269 323.391 71.4269C323.979 71.4795 324.556 71.532 325.144 71.6055C325.617 71.658 326.079 71.721 326.541 71.7945C327.265 71.8995 327.99 72.0255 328.693 72.1725C328.788 72.1935 328.872 72.2145 328.966 72.2355C329.649 72.3825 330.321 72.5505 330.972 72.729C331.276 72.813 331.581 72.8865 331.885 72.981C332.484 73.1595 333.083 73.3485 333.671 73.548C333.86 73.611 334.038 73.6846 334.227 73.7476C334.595 73.8841 334.973 74.0206 335.33 74.1676C335.771 74.3461 336.212 74.5351 336.642 74.7346C336.852 74.8291 337.062 74.9236 337.272 75.0181C337.902 75.3227 338.511 75.6377 339.099 75.9842C343.898 78.7563 346.597 82.2845 347.185 85.9072L347.216 73.065C346.607 69.4213 343.919 65.8827 339.11 63.1105Z" fill="#096FCE"/>
<path d="M320.545 90.6114L320.513 103.454L318.13 111.077L318.172 98.2348L320.545 90.6114Z" fill="#0879E2"/>
<path d="M311.252 97.7306C310.79 97.6991 310.338 97.6362 309.876 97.5942C309.036 97.5102 308.196 97.4261 307.367 97.3106C306.957 97.2581 306.548 97.1951 306.138 97.1321C305.287 97.0061 304.458 96.8591 303.628 96.6911C303.156 96.5966 302.673 96.5126 302.211 96.4076C301.959 96.3551 301.707 96.2921 301.465 96.2396C300.667 96.0506 299.89 95.8616 299.113 95.641C299.008 95.6095 298.903 95.5886 298.809 95.5571C297.906 95.305 297.013 95.0215 296.142 94.7275C295.9 94.6435 295.669 94.5595 295.438 94.4755C294.84 94.2655 294.241 94.045 293.663 93.8035C293.033 93.5514 292.435 93.2784 291.826 93.0054C291.532 92.8689 291.227 92.7429 290.933 92.6064C290.062 92.1864 289.211 91.7453 288.403 91.2728C280.685 86.8206 276.863 80.9193 276.884 74.934L276.852 87.7762C276.831 93.7615 280.664 99.6628 288.371 104.115C289.18 104.577 290.03 105.018 290.902 105.449C291.196 105.585 291.5 105.711 291.794 105.848C292.393 106.121 293.002 106.394 293.632 106.646C293.726 106.688 293.811 106.73 293.916 106.772C294.409 106.961 294.913 107.139 295.417 107.318C295.648 107.402 295.879 107.496 296.121 107.57C296.961 107.853 297.822 108.126 298.693 108.378C298.725 108.389 298.756 108.389 298.777 108.399C298.882 108.431 298.977 108.452 299.082 108.483C299.848 108.693 300.636 108.893 301.434 109.082C301.686 109.134 301.927 109.197 302.179 109.25C302.41 109.302 302.641 109.355 302.883 109.407C303.114 109.46 303.366 109.491 303.607 109.533C304.437 109.691 305.277 109.838 306.117 109.974C306.359 110.016 306.59 110.069 306.831 110.1C306.999 110.121 307.167 110.132 307.335 110.153C308.165 110.268 309.005 110.352 309.845 110.436C310.128 110.468 310.401 110.51 310.674 110.531C310.853 110.541 311.031 110.562 311.22 110.573L318.13 111.087L318.161 98.2452L311.252 97.7306Z" fill="#096FCE"/>
<path d="M348.139 56.5689C352.969 59.3516 356.477 62.8692 358.272 66.7229L360.11 70.6396L347.205 73.0338C346.606 69.4111 343.918 65.8829 339.119 63.1107C336.946 61.8612 334.509 60.8531 331.916 60.1076C329.784 59.4566 327.516 59.0051 325.174 58.7425C316.27 57.661 306.641 59.11 299.763 63.1107C294.943 65.9144 292.276 69.4951 291.772 73.1598C290.88 77.5595 293.179 82.0327 298.776 85.2564C298.902 85.3299 299.049 85.3929 299.186 85.4664C299.417 85.6134 299.648 85.7604 299.9 85.8969C305.591 89.1836 313.12 90.7482 320.554 90.6012L318.181 98.2245L311.272 97.71C302.619 97.0695 294.502 94.7804 288.423 91.2732C272.609 82.1377 273.144 66.9225 289.609 57.3565C306.074 47.7905 332.325 47.444 348.139 56.5689Z" fill="#158BF8"/>
<path d="M352.677 46.0051L352.645 58.8473L342.817 64.8851L342.848 52.0534L352.677 46.0051Z" fill="#F3A610"/>
<path d="M340.254 50.3314C339.666 49.9849 339.047 49.6698 338.417 49.3653C338.217 49.2708 338.007 49.1763 337.808 49.0818C337.367 48.8823 336.915 48.6828 336.464 48.4938C336.359 48.4518 336.254 48.3993 336.138 48.3573C335.96 48.2838 335.781 48.2313 335.603 48.1683C335.34 48.0738 335.088 47.9792 334.826 47.8847C334.5 47.7692 334.164 47.6642 333.828 47.5592C333.565 47.4752 333.303 47.3912 333.04 47.3177C332.935 47.2862 332.83 47.2547 332.725 47.2232C332.61 47.1917 332.484 47.1707 332.368 47.1392C331.602 46.9292 330.814 46.7402 330.027 46.5617C329.932 46.5407 329.848 46.5092 329.754 46.4987C329.722 46.4882 329.68 46.4882 329.649 46.4777C328.83 46.3097 328 46.1731 327.16 46.0471C327.087 46.0366 327.013 46.0157 326.94 46.0052C326.457 45.9422 325.974 45.8791 325.491 45.8266C324.987 45.7636 324.482 45.7216 323.978 45.6796C323.716 45.6586 323.443 45.6586 323.181 45.6376C322.803 45.6166 322.435 45.5956 322.057 45.5746C321.836 45.5641 321.626 45.5431 321.406 45.5431C321.08 45.5326 320.755 45.5536 320.44 45.5431C320.009 45.5431 319.589 45.5431 319.159 45.5536C318.98 45.5536 318.812 45.5536 318.634 45.5536C318.329 45.5641 318.014 45.5956 317.71 45.6166C317.164 45.6481 316.628 45.6796 316.082 45.7216C315.904 45.7426 315.715 45.7426 315.536 45.7531C314.927 45.8161 314.318 45.8897 313.709 45.9737L313.383 46.0156C313.121 46.0576 312.848 46.0997 312.585 46.1417C312.281 46.1942 311.976 46.2467 311.672 46.2992C311.472 46.3307 311.273 46.3727 311.063 46.4147C310.149 46.5932 309.246 46.8137 308.364 47.0447C308.091 47.1182 307.829 47.2022 307.566 47.2757C307.199 47.3807 306.821 47.4752 306.464 47.5907C306.159 47.6852 305.865 47.8007 305.561 47.9058C305.414 47.9583 305.256 48.0108 305.109 48.0633C304.321 48.3468 303.555 48.6618 302.809 48.9978C302.662 49.0608 302.515 49.1343 302.368 49.2078C301.602 49.5648 300.856 49.9428 300.153 50.3524C300.027 50.4259 299.89 50.4994 299.764 50.5834C299.659 50.6464 299.565 50.7094 299.46 50.7724C299.271 50.8879 299.082 51.0034 298.903 51.1294C298.746 51.2344 298.599 51.3394 298.441 51.4339C298.263 51.5494 298.095 51.6754 297.927 51.8014C297.78 51.9064 297.643 52.0115 297.496 52.1165C297.328 52.2425 297.171 52.3685 297.013 52.4945C296.877 52.5995 296.751 52.715 296.614 52.82C296.467 52.946 296.32 53.072 296.173 53.2085C296.1 53.2715 296.026 53.3345 295.963 53.3975C295.921 53.4395 295.89 53.471 295.848 53.513C295.575 53.765 295.323 54.0276 295.071 54.2796C295.039 54.3111 294.997 54.3531 294.966 54.3846C294.693 54.6786 294.44 54.9726 294.199 55.2771C294.178 55.3086 294.147 55.3296 294.126 55.3611C294.073 55.4346 294.031 55.4976 293.968 55.5711C293.842 55.7391 293.716 55.9072 293.6 56.0752C293.527 56.1802 293.454 56.2957 293.38 56.4007C293.275 56.5687 293.17 56.7367 293.075 56.8942C293.033 56.9572 292.991 57.0202 292.96 57.0832C292.928 57.1357 292.907 57.1777 292.886 57.2302C292.813 57.3667 292.739 57.5137 292.666 57.6502C292.603 57.7658 292.55 57.8918 292.487 58.0073C292.424 58.1543 292.361 58.2908 292.309 58.4378C292.277 58.5218 292.235 58.6058 292.204 58.6793C292.193 58.7213 292.183 58.7633 292.162 58.7948C292.109 58.9208 292.078 59.0573 292.036 59.1833C291.994 59.3093 291.952 59.4353 291.92 59.5614C291.889 59.6874 291.857 59.8239 291.826 59.9499C291.805 60.0444 291.773 60.1284 291.763 60.2229C291.752 60.2649 291.752 60.2964 291.742 60.3384C291.721 60.4644 291.7 60.6009 291.679 60.7269C291.658 60.8529 291.637 60.9894 291.626 61.1154C291.616 61.2414 291.605 61.3779 291.595 61.5039C291.584 61.5984 291.574 61.6824 291.574 61.7769C291.574 61.8505 291.574 61.9345 291.574 62.008L291.542 74.8501C291.542 74.6821 291.553 74.5141 291.563 74.3461C291.574 74.2201 291.574 74.0836 291.595 73.9576C291.605 73.8316 291.626 73.6951 291.647 73.5691C291.668 73.4431 291.689 73.3066 291.71 73.1805C291.731 73.0545 291.763 72.9285 291.794 72.792C291.826 72.666 291.857 72.5295 291.889 72.4035C291.92 72.2775 291.962 72.1515 292.004 72.0255C292.046 71.8995 292.088 71.763 292.13 71.637C292.172 71.511 292.225 71.3954 292.277 71.2694C292.33 71.1224 292.393 70.9859 292.456 70.8389C292.508 70.7129 292.571 70.5974 292.634 70.4714C292.708 70.3349 292.771 70.1879 292.855 70.0514C292.918 69.9359 292.981 69.8204 293.054 69.7153C293.149 69.5473 293.254 69.3793 293.359 69.2218C293.432 69.1168 293.506 69.0013 293.579 68.8963C293.695 68.7283 293.821 68.5603 293.947 68.3923C294.02 68.2978 294.094 68.1928 294.178 68.0983C294.42 67.8042 294.672 67.4998 294.945 67.2057C294.976 67.1742 295.018 67.1322 295.05 67.1007C295.291 66.8382 295.554 66.5862 295.816 66.3342C295.921 66.2292 296.037 66.1347 296.152 66.0297C296.299 65.9037 296.446 65.7776 296.593 65.6411C296.719 65.5361 296.856 65.4206 296.992 65.3156C297.15 65.1896 297.307 65.0636 297.475 64.9376C297.612 64.8326 297.759 64.7276 297.906 64.6226C298.074 64.4966 298.252 64.3811 298.42 64.2551C298.567 64.1501 298.725 64.0451 298.882 63.9506C299.061 63.8351 299.25 63.7091 299.439 63.5936C299.659 63.457 299.89 63.31 300.121 63.1735C300.825 62.764 301.581 62.386 302.337 62.029C302.484 61.9554 302.631 61.8925 302.778 61.819C303.523 61.4829 304.29 61.1679 305.077 60.8844C305.225 60.8319 305.382 60.7794 305.529 60.7269C306.18 60.4959 306.852 60.2964 307.524 60.0969C307.797 60.0234 308.06 59.9393 308.333 59.8658C309.215 59.6348 310.107 59.4143 311.031 59.2358C311.535 59.1413 312.029 59.0468 312.543 58.9733C312.806 58.9313 313.069 58.8893 313.342 58.8473L313.667 58.8053C314.455 58.7003 315.242 58.6268 316.04 58.5533C316.586 58.5008 317.122 58.4693 317.668 58.4483C318.151 58.4273 318.634 58.3958 319.117 58.3853C319.547 58.3748 319.978 58.3748 320.398 58.3748C320.944 58.3748 321.479 58.3853 322.015 58.4063C322.393 58.4168 322.76 58.4378 323.138 58.4693C323.916 58.5218 324.693 58.5743 325.449 58.6583C326.005 58.7213 326.562 58.7948 327.108 58.8788C327.948 59.0048 328.777 59.1413 329.596 59.3093C329.722 59.3408 329.848 59.3723 329.974 59.3933C330.772 59.5613 331.549 59.7503 332.316 59.9709C332.536 60.0339 332.767 60.0864 332.977 60.1494C333.24 60.2229 333.513 60.3069 333.776 60.3909C334.112 60.4959 334.448 60.6009 334.773 60.7164C335.036 60.8109 335.298 60.9054 335.55 60.9999C335.834 61.1049 336.117 61.2204 336.401 61.3359C336.863 61.525 337.304 61.714 337.745 61.924C337.944 62.0185 338.154 62.1025 338.354 62.2075C338.984 62.512 339.603 62.827 340.191 63.1735C341.136 63.7196 341.997 64.2971 342.785 64.8956L342.816 52.0534C342.06 51.4549 341.199 50.8774 340.254 50.3314Z" fill="#EB920E"/>
<path d="M309.015 76.9924L308.973 89.824L301.465 96.5024L301.497 83.6602L309.015 76.9924Z" fill="#F3A610"/>
<path d="M295.385 81.4656C294.829 81.2661 294.293 81.0561 293.758 80.8461C293.558 80.7621 293.369 80.6885 293.17 80.6045C292.802 80.447 292.445 80.3 292.088 80.132C291.889 80.048 291.7 79.9535 291.5 79.8695C291.133 79.7015 290.776 79.523 290.419 79.3445C290.251 79.2605 290.093 79.1765 289.925 79.0925C289.421 78.8299 288.917 78.5569 288.434 78.2839C283.614 75.5013 280.307 72.1516 278.511 68.5709C277.43 66.4183 276.905 64.1922 276.905 61.9451L276.873 74.7873C276.852 80.7726 280.685 86.6739 288.392 91.1261C288.875 91.4096 289.379 91.6721 289.883 91.9346C290.041 92.0186 290.209 92.1026 290.377 92.1761C290.734 92.3547 291.091 92.5332 291.458 92.7012C291.647 92.7957 291.847 92.8797 292.046 92.9637C292.403 93.1212 292.771 93.2787 293.138 93.4362C293.338 93.5202 293.527 93.6042 293.726 93.6777C293.821 93.7197 293.915 93.7617 294.01 93.7932C294.451 93.9717 294.903 94.1397 295.354 94.2972L301.465 96.4918L301.497 83.6497L295.385 81.4656Z" fill="#EB920E"/>
<path d="M352.676 46.0053L342.848 52.0536C342.06 51.455 341.199 50.8775 340.254 50.3315C336.054 47.9059 330.887 46.4043 325.49 45.8058C321.657 45.3542 317.615 45.4067 313.698 45.9528L313.372 45.9948C313.11 46.0368 312.837 46.0788 312.574 46.1208C312.06 46.2048 311.556 46.2888 311.062 46.3833C307.02 47.1813 303.302 48.4939 300.152 50.321C290.628 55.8548 289.032 64.0662 295.543 69.915C296.803 71.2066 298.378 72.4351 300.289 73.5377C302.872 75.0288 305.844 76.1733 309.004 76.9713L301.486 83.6497L295.375 81.4551C292.865 80.552 290.523 79.481 288.423 78.2734C272.609 69.1379 273.134 53.9332 289.61 44.3567C305.592 35.0742 331.465 34.4967 347.268 43.0756L352.676 46.0053Z" fill="#FDC800"/>
<path d="M334.104 166.076C334.104 167.452 333.34 169.706 332.958 170.661C331.239 175.246 338.116 176.966 336.97 173.527C336.053 170.776 336.97 168.178 337.543 167.223C338.689 168.369 341.211 170.318 342.128 168.942C343.274 167.223 343.274 159.199 342.128 158.053C340.982 156.906 335.824 156.906 334.104 158.053C332.385 159.199 334.104 164.357 334.104 166.076Z" fill="#EEC9BA"/>
<path d="M339.835 253.765C338.001 254.223 336.015 253.574 335.25 253.192L336.814 247.46C337.439 247.078 338.689 246.543 338.689 247.46C338.689 248.607 342.128 249.18 343.847 249.18C345.567 249.18 347.286 250.899 346.713 251.472C346.14 252.045 342.128 253.192 339.835 253.765Z" fill="#2A1963"/>
<path d="M327.227 249.18L327.8 244.595C328.182 243.831 329.061 242.761 329.519 244.595C330.092 246.887 330.665 245.168 332.958 243.449C334.792 242.073 335.25 244.022 335.25 245.168C334.868 246.505 333.416 249.524 330.665 250.899C327.914 252.275 327.227 250.326 327.227 249.18Z" fill="#2A1963"/>
<path opacity="0.1" d="M336.596 244.483L327.037 250.195L354.292 267.781L364.682 261.224L336.596 244.483Z" fill="url(#paint9_linear_3030_1247)"/>
<path d="M336.97 166.649L338.116 161.491C343.847 161.491 344.421 159.772 344.421 158.053C344.421 156.333 343.847 154.614 342.701 155.187C341.555 155.76 336.97 155.76 334.104 155.76C331.239 155.76 331.812 159.199 332.385 161.491C332.843 163.325 333.722 165.694 334.104 166.649H336.97Z" fill="#7D392E"/>
<path d="M327.464 206.195C326.891 201.61 327.464 199.318 328.037 196.452L341.792 202.757C343.129 209.825 345.689 224.192 345.231 225.109C344.658 226.255 339.5 249.18 338.927 249.753C338.468 250.212 336.061 249.18 334.915 248.607C335.488 245.359 336.749 238.176 337.207 235.425C337.78 231.986 338.927 226.255 338.927 224.535C338.927 223.16 336.252 218.231 334.915 215.939L333.195 225.109C332.813 229.885 332.049 240.125 332.049 242.876C332.049 245.627 329.374 246.696 328.037 246.887C327.846 244.022 327.464 237.373 327.464 233.705C327.464 230.037 327.846 224.918 328.037 222.816C328.037 218.804 327.923 209.863 327.464 206.195Z" fill="#427FF7"/>
<path d="M322.642 186.709L323.215 178.112H327.8C327.227 180.023 325.966 184.073 325.507 184.99C324.934 186.136 326.08 191.867 327.227 194.733C328.373 197.598 327.718 199.891 326.08 198.172C324.77 196.796 323.242 189.957 322.642 186.709Z" fill="#F8D5C5"/>
<path d="M352.444 189.575C350.725 189.575 346.14 185.563 344.994 184.99L347.286 180.405L352.444 185.563L362.761 176.393L366.199 174.673L367.919 176.966L365.626 178.112C364.862 178.876 362.875 180.748 361.041 182.124C358.749 183.843 354.164 189.575 352.444 189.575Z" fill="#F8D5C5"/>
<path d="M328.373 168.942C330.092 168.942 334.677 169.515 338.116 171.235L341.555 172.381C343.274 172.954 345.567 176.393 346.713 176.966C347.63 177.424 349.77 180.596 350.725 182.124L347.859 187.855C347.477 187.855 346.484 187.626 345.567 186.709C344.65 185.792 342.51 184.034 341.555 183.27L342.701 190.148C343.16 192.899 343.274 200.846 343.274 204.476C341.746 204.667 338.001 204.934 335.25 204.476C332.499 204.017 327.227 201.228 324.934 199.891C325.507 197.981 326.654 193.472 326.654 190.721V180.978L322.642 179.258C322.642 178.685 322.871 176.851 323.788 174.1C324.934 170.661 326.654 168.942 328.373 168.942Z" fill="#2B3874"/>
<path d="M257.149 149.695C258.661 150.566 258.672 151.973 257.17 152.855L234.92 165.781C233.418 166.653 230.972 166.653 229.459 165.781L211.84 155.606C210.327 154.735 210.317 153.317 211.818 152.435L234.069 139.509C235.571 138.638 238.017 138.638 239.529 139.509L257.149 149.695Z" fill="#0879E2"/>
</g>
<defs>
<linearGradient id="paint0_linear_3030_1247" x1="319.067" y1="69.3487" x2="318.9" y2="192.053" gradientUnits="userSpaceOnUse">
<stop offset="0.401042" stop-color="#0858F7" stop-opacity="0"/>
<stop offset="1" stop-color="#0858F7"/>
</linearGradient>
<linearGradient id="paint1_linear_3030_1247" x1="190.013" y1="157.667" x2="190.013" y2="219.549" gradientUnits="userSpaceOnUse">
<stop stop-color="#036ED0"/>
<stop offset="1" stop-color="#0879E2"/>
</linearGradient>
<linearGradient id="paint2_linear_3030_1247" x1="190.013" y1="175.029" x2="190.013" y2="311.474" gradientUnits="userSpaceOnUse">
<stop offset="0.401042" stop-color="#0858F7" stop-opacity="0"/>
<stop offset="1" stop-color="#0858F7"/>
</linearGradient>
<linearGradient id="paint3_linear_3030_1247" x1="128.482" y1="136.723" x2="159.261" y2="183.096" gradientUnits="userSpaceOnUse">
<stop/>
<stop offset="1" stop-opacity="0"/>
</linearGradient>
<linearGradient id="paint4_linear_3030_1247" x1="155.567" y1="120.308" x2="186.346" y2="166.681" gradientUnits="userSpaceOnUse">
<stop/>
<stop offset="1" stop-opacity="0"/>
</linearGradient>
<linearGradient id="paint5_linear_3030_1247" x1="321.217" y1="242.878" x2="321.217" y2="301.969" gradientUnits="userSpaceOnUse">
<stop stop-color="#036ED0"/>
<stop offset="1" stop-color="#0879E2"/>
</linearGradient>
<linearGradient id="paint6_linear_3030_1247" x1="321.217" y1="242.878" x2="321.217" y2="313.937" gradientUnits="userSpaceOnUse">
<stop offset="0.401042" stop-color="#0858F7" stop-opacity="0.33"/>
<stop offset="1" stop-color="#0858F7"/>
</linearGradient>
<linearGradient id="paint7_linear_3030_1247" x1="140.76" y1="252.442" x2="140.76" y2="307.795" gradientUnits="userSpaceOnUse">
<stop stop-color="#036ED0"/>
<stop offset="1" stop-color="#0879E2"/>
</linearGradient>
<linearGradient id="paint8_linear_3030_1247" x1="140.76" y1="252.442" x2="140.76" y2="312.619" gradientUnits="userSpaceOnUse">
<stop offset="0.401042" stop-color="#0858F7" stop-opacity="0.24"/>
<stop offset="1" stop-color="#0858F7"/>
</linearGradient>
<linearGradient id="paint9_linear_3030_1247" x1="331.609" y1="247.656" x2="347.582" y2="271.297" gradientUnits="userSpaceOnUse">
<stop/>
<stop offset="1" stop-opacity="0"/>
</linearGradient>
<clipPath id="clip0_3030_1247">
<rect width="422" height="329" fill="white" transform="translate(29 23.5)"/>
</clipPath>
</defs>
</svg>
